<svg width="15" height="24" viewBox="0 0 15 24" fill="none" xmlns="http://www.w3.org/2000/svg">
<path d="M4.60454 22.4184V13.932H1.35654C1.1879 13.932 1.02618 13.8651 0.906935 13.7458C0.787693 13.6266 0.720703 13.4648 0.720703 13.2962V9.93971C0.720703 9.77108 0.787693 9.60935 0.906935 9.49011C1.02618 9.37087 1.1879 9.30388 1.35654 9.30388H4.5917V6.05471C4.51431 5.28419 4.60656 4.50606 4.86196 3.77499C5.11736 3.04392 5.52973 2.37763 6.07009 1.82293C6.61046 1.26822 7.26571 0.838543 7.98985 0.564081C8.71398 0.289619 9.48942 0.177026 10.2617 0.23421H12.9684C13.1386 0.233876 13.3022 0.300478 13.4237 0.419648C13.5453 0.538817 13.6151 0.701001 13.6182 0.87121V3.71321C13.6145 3.88312 13.5445 4.04483 13.423 4.16369C13.3015 4.28254 13.1383 4.34908 12.9684 4.34904H11.2767C9.4497 4.34904 9.09854 5.21471 9.09854 6.48754V9.30271H13.442C13.5323 9.29972 13.6222 9.31643 13.7053 9.35168C13.7885 9.38693 13.863 9.43987 13.9236 9.50683C13.9842 9.57378 14.0295 9.65314 14.0564 9.73938C14.0832 9.82562 14.0909 9.91668 14.079 10.0062L13.6859 13.3755C13.6662 13.5299 13.5906 13.6716 13.4734 13.774C13.3562 13.8763 13.2056 13.9321 13.05 13.9309H9.12537V22.4172C9.12725 22.5671 9.09911 22.7158 9.0426 22.8546C8.98608 22.9933 8.90235 23.1194 8.79633 23.2253C8.69031 23.3312 8.56415 23.4148 8.4253 23.4712C8.28645 23.5276 8.13771 23.5556 7.98787 23.5535H5.72804C5.57932 23.5539 5.43203 23.5246 5.29473 23.4674C5.15744 23.4103 5.03289 23.3264 4.92833 23.2206C4.82377 23.1149 4.74129 22.9894 4.6857 22.8515C4.63012 22.7135 4.60252 22.5671 4.60454 22.4184Z" fill="white"/>
</svg>
