<svg width="25" height="24" viewBox="0 0 25 24" fill="none" xmlns="http://www.w3.org/2000/svg">
<path d="M13.6015 0.22168C14.914 0.22518 15.5802 0.23218 16.1554 0.248513L16.3817 0.25668C16.643 0.266013 16.9009 0.27768 17.2124 0.29168C18.4537 0.350013 19.3007 0.546013 20.0439 0.83418C20.8139 1.13051 21.4625 1.53185 22.1112 2.17935C22.7044 2.76256 23.1635 3.46803 23.4564 4.24668C23.7445 4.98985 23.9405 5.83685 23.9989 7.07935C24.0129 7.38968 24.0245 7.64751 24.0339 7.91001L24.0409 8.13635C24.0584 8.71035 24.0654 9.37651 24.0677 10.689L24.0689 11.5593V13.0877C24.0717 13.9387 24.0628 14.7896 24.042 15.6403L24.035 15.8667C24.0257 16.1292 24.014 16.387 24 16.6973C23.9417 17.9398 23.7434 18.7857 23.4564 19.53C23.1643 20.3091 22.7052 21.0147 22.1112 21.5973C21.5278 22.1904 20.8224 22.6494 20.0439 22.9425C19.3007 23.2307 18.4537 23.4267 17.2124 23.485C16.9355 23.498 16.6586 23.5097 16.3817 23.52L16.1554 23.527C15.5802 23.5433 14.914 23.5515 13.6015 23.5538L12.7312 23.555H11.204C10.3527 23.5579 9.50132 23.549 8.6502 23.5282L8.42387 23.5212C8.14691 23.5107 7.87002 23.4986 7.5932 23.485C6.35187 23.4267 5.50487 23.2307 4.76054 22.9425C3.98198 22.6501 3.27679 22.191 2.69437 21.5973C2.10059 21.0143 1.64113 20.3088 1.34804 19.53C1.05987 18.7868 0.86387 17.9398 0.805536 16.6973C0.792538 16.4205 0.780872 16.1436 0.770536 15.8667L0.764703 15.6403C0.743204 14.7896 0.733481 13.9387 0.735536 13.0877V10.689C0.73228 9.83805 0.740837 8.98708 0.761203 8.13635L0.76937 7.91001C0.778703 7.64751 0.79037 7.38968 0.80437 7.07935C0.862703 5.83685 1.0587 4.99101 1.34687 4.24668C1.63984 3.46723 2.10021 2.76154 2.69554 2.17935C3.27781 1.58607 3.98254 1.127 4.76054 0.83418C5.50487 0.546013 6.3507 0.350013 7.5932 0.29168C7.90354 0.27768 8.16254 0.266013 8.42387 0.25668L8.6502 0.24968C9.50093 0.228951 10.3519 0.220006 11.2029 0.222846L13.6015 0.22168ZM12.4022 6.05501C10.8551 6.05501 9.37138 6.66959 8.27741 7.76356C7.18345 8.85752 6.56887 10.3412 6.56887 11.8883C6.56887 13.4354 7.18345 14.9192 8.27741 16.0131C9.37138 17.1071 10.8551 17.7217 12.4022 17.7217C13.9493 17.7217 15.433 17.1071 16.527 16.0131C17.621 14.9192 18.2355 13.4354 18.2355 11.8883C18.2355 10.3412 17.621 8.85752 16.527 7.76356C15.433 6.66959 13.9493 6.05501 12.4022 6.05501ZM12.4022 8.38835C12.8618 8.38827 13.317 8.47872 13.7416 8.65454C14.1663 8.83037 14.5522 9.08811 14.8772 9.41306C15.2023 9.73801 15.4602 10.1238 15.6361 10.5484C15.8121 10.973 15.9027 11.4281 15.9028 11.8878C15.9029 12.3474 15.8124 12.8025 15.6366 13.2272C15.4608 13.6519 15.203 14.0377 14.8781 14.3628C14.5531 14.6879 14.1673 14.9457 13.7427 15.1217C13.3181 15.2977 12.863 15.3883 12.4034 15.3883C11.4751 15.3883 10.5849 15.0196 9.9285 14.3632C9.27212 13.7068 8.90337 12.8166 8.90337 11.8883C8.90337 10.9601 9.27212 10.0698 9.9285 9.41347C10.5849 8.75709 11.4751 8.38835 12.4034 8.38835M18.5284 4.30501C18.1416 4.30501 17.7707 4.45866 17.4972 4.73215C17.2237 5.00564 17.07 5.37657 17.07 5.76335C17.07 6.15012 17.2237 6.52105 17.4972 6.79454C17.7707 7.06803 18.1416 7.22168 18.5284 7.22168C18.9151 7.22168 19.2861 7.06803 19.5596 6.79454C19.8331 6.52105 19.9867 6.15012 19.9867 5.76335C19.9867 5.37657 19.8331 5.00564 19.5596 4.73215C19.2861 4.45866 18.9151 4.30501 18.5284 4.30501Z" fill="white"/>
</svg>
