<svg width="21" height="20" viewBox="0 0 21 20" fill="none" xmlns="http://www.w3.org/2000/svg">
<path fill-rule="evenodd" clip-rule="evenodd" d="M10.4998 1.6665C13.7215 1.6665 16.3332 4.27818 16.3332 7.49984C16.3332 8.56248 16.0498 9.55817 15.5526 10.4168C15.2211 10.9893 13.5368 13.9058 10.4998 19.1665C7.46285 13.9058 5.7786 10.9893 5.4471 10.4168C4.94984 9.55817 4.6665 8.56248 4.6665 7.49984C4.6665 4.27818 7.27818 1.6665 10.4998 1.6665ZM10.4998 4.99984C9.11912 4.99984 7.99984 6.11912 7.99984 7.49984C7.99984 8.88055 9.11912 9.99984 10.4998 9.99984C11.8805 9.99984 12.9998 8.88055 12.9998 7.49984C12.9998 6.11912 11.8805 4.99984 10.4998 4.99984Z" fill="#142254"/>
</svg>
