<svg width="12" height="12" viewBox="0 0 12 12" fill="none" xmlns="http://www.w3.org/2000/svg">
<path d="M11.2251 8.67513C11.1028 8.54481 10.6708 8.1595 9.87678 7.64974C9.07686 7.13552 8.48694 6.81489 8.31772 6.74013C8.3028 6.73351 8.28637 6.73109 8.27018 6.73311C8.254 6.73513 8.23867 6.74153 8.22584 6.75161C7.95326 6.96419 7.49436 7.35466 7.46975 7.37575C7.31084 7.51192 7.31084 7.51192 7.18076 7.4695C6.95201 7.3945 6.24139 7.01716 5.62217 6.39653C5.00295 5.77591 4.60615 5.04771 4.53115 4.81919C4.48826 4.68888 4.48826 4.68888 4.6249 4.52997C4.646 4.50536 5.0367 4.04646 5.24928 3.77411C5.25936 3.76129 5.26576 3.74596 5.26778 3.72977C5.2698 3.71358 5.26738 3.69715 5.26076 3.68224C5.186 3.51278 4.86537 2.9231 4.35115 2.12317C3.84069 1.32935 3.45584 0.897393 3.32553 0.775049C3.31357 0.763764 3.29879 0.755914 3.28275 0.752326C3.2667 0.748737 3.24998 0.749543 3.23436 0.754658C2.77884 0.911194 2.33934 1.11093 1.92186 1.35114C1.51883 1.58543 1.13727 1.85483 0.781623 2.15622C0.769208 2.16678 0.7599 2.18051 0.754698 2.19595C0.749495 2.21139 0.748595 2.22796 0.752092 2.24388C0.801076 2.47216 1.03522 3.42513 1.76178 4.74513C2.50311 6.09231 3.01686 6.78255 4.10553 7.86747C5.1942 8.95239 5.90623 9.49708 7.25483 10.2384C8.57483 10.965 9.52826 11.1993 9.75608 11.2479C9.77203 11.2513 9.78862 11.2504 9.80409 11.2452C9.81956 11.24 9.83334 11.2307 9.84397 11.2183C10.1453 10.8627 10.4146 10.4811 10.6488 10.0781C10.889 9.66059 11.0887 9.22109 11.2453 8.7656C11.2503 8.75009 11.2511 8.73352 11.2475 8.71762C11.244 8.70171 11.2363 8.68704 11.2251 8.67513Z" fill="#142254"/>
</svg>
