<svg width="21" height="20" viewBox="0 0 21 20" fill="none" xmlns="http://www.w3.org/2000/svg">
<path d="M19.2086 14.4583C19.0047 14.2412 18.2847 13.599 16.9613 12.7494C15.6281 11.8923 14.6449 11.358 14.3629 11.2333C14.338 11.2223 14.3106 11.2183 14.2836 11.2216C14.2567 11.225 14.2311 11.2357 14.2097 11.2525C13.7554 11.6068 12.9906 12.2576 12.9496 12.2927C12.6847 12.5197 12.6847 12.5197 12.4679 12.449C12.0867 12.324 10.9023 11.6951 9.87028 10.6607C8.83825 9.62631 8.17692 8.41264 8.05192 8.03178C7.98044 7.81459 7.98044 7.81459 8.20817 7.54975C8.24333 7.50873 8.8945 6.74389 9.2488 6.28998C9.2656 6.26861 9.27626 6.24306 9.27964 6.21608C9.28301 6.1891 9.27896 6.16171 9.26794 6.13686C9.14333 5.85444 8.60895 4.87162 7.75192 3.53842C6.90114 2.21537 6.25974 1.49545 6.04255 1.29154C6.02262 1.27274 5.99798 1.25965 5.97124 1.25367C5.9445 1.24769 5.91664 1.24903 5.8906 1.25756C5.13141 1.51845 4.39891 1.85135 3.7031 2.2517C3.03139 2.64218 2.39545 3.09119 1.8027 3.5935C1.78201 3.61109 1.7665 3.63398 1.75783 3.65972C1.74916 3.68545 1.74766 3.71307 1.75349 3.73959C1.83513 4.12006 2.22536 5.70834 3.4363 7.90834C4.67185 10.1537 5.5281 11.304 7.34255 13.1122C9.157 14.9205 10.3437 15.8283 12.5914 17.0638C14.7914 18.2747 16.3804 18.6654 16.7601 18.7462C16.7867 18.752 16.8144 18.7505 16.8402 18.7418C16.8659 18.7332 16.8889 18.7177 16.9066 18.697C17.4088 18.1043 17.8577 17.4683 18.248 16.7966C18.6483 16.1008 18.9812 15.3683 19.2422 14.6091C19.2505 14.5833 19.2518 14.5557 19.2459 14.5292C19.24 14.5026 19.2271 14.4782 19.2086 14.4583Z" fill="#142254"/>
</svg>
