<svg width="30" height="30" viewBox="0 0 30 30" fill="none" xmlns="http://www.w3.org/2000/svg">
<path d="M13.0792 6.30918H17.2229C18.1165 6.30918 18.842 5.58463 18.842 4.68918V2.52918C18.842 1.63463 18.1174 0.90918 17.222 0.90918H12.702C12.2198 0.90918 11.7573 1.10074 11.4163 1.44171C11.0753 1.78269 10.8838 2.24515 10.8838 2.72736V4.491C10.8838 4.97321 11.0753 5.43567 11.4163 5.77665C11.7573 6.11762 12.2198 6.30918 12.702 6.30918H13.0792Z" fill="#142254"/>
<path d="M17.1952 12.52V14.95H18.0989C18.2269 14.9501 18.3534 14.9231 18.4703 14.8708C18.5871 14.8186 18.6916 14.7422 18.7769 14.6468C18.8622 14.5514 18.9264 14.439 18.9653 14.317C19.0042 14.1951 19.0168 14.0663 19.0025 13.9391L18.9334 13.3273C18.9084 13.1052 18.8024 12.9001 18.6357 12.7512C18.469 12.6022 18.2533 12.52 18.0298 12.52H17.1952ZM14.7252 17.9209C13.8161 17.9209 13.0789 17.1837 13.0789 16.2746V12.52H12.7407C12.3018 12.5203 11.8778 12.6793 11.547 12.9677C11.2162 13.256 11.0008 13.6544 10.9407 14.0891L9.79705 22.3337C9.76131 22.5912 9.7812 22.8533 9.85538 23.1025C9.92956 23.3516 10.0563 23.582 10.2271 23.778C10.3978 23.974 10.6087 24.1311 10.8453 24.2387C11.0819 24.3463 11.3389 24.402 11.5989 24.4018H13.6452C14.2416 24.4018 14.7252 24.8855 14.7252 25.4818C14.7252 26.0782 15.2089 26.5618 15.8052 26.5618H18.7143C18.9714 26.5619 19.2255 26.5074 19.46 26.402C19.6944 26.2966 19.9038 26.1427 20.0745 25.9505C20.2451 25.7582 20.373 25.5319 20.4497 25.2866C20.5265 25.0413 20.5504 24.7825 20.5198 24.5273L20.4061 23.5727C20.3532 23.1311 20.1403 22.7242 19.8075 22.4291C19.4748 22.1339 19.0455 21.9709 18.6007 21.9709H16.5434C16.0612 21.9709 15.5987 21.7794 15.2578 21.4384C14.9168 21.0974 14.7252 20.635 14.7252 20.1527V17.9209Z" fill="#142254"/>
<path d="M18.8417 2.52918C18.8417 1.63463 18.1172 0.90918 17.2217 0.90918H12.7017C12.2195 0.90918 11.7571 1.10074 11.4161 1.44171C11.0751 1.78269 10.8836 2.24515 10.8836 2.72736V4.491C10.8836 4.97321 11.0751 5.43567 11.4161 5.77665C11.7571 6.11762 12.2195 6.30918 12.7017 6.30918H13.079H17.1954L17.2226 6.31009C18.1163 6.31009 18.8417 5.58463 18.8417 4.68918M18.8417 2.52918H19.3054C19.5465 2.52918 19.7777 2.62496 19.9482 2.79545C20.1187 2.96593 20.2145 3.19716 20.2145 3.43827V3.78009C20.2145 4.02119 20.1187 4.25243 19.9482 4.42291C19.7777 4.5934 19.5465 4.68918 19.3054 4.68918H18.8417M18.8417 2.52918V4.68918M13.0781 6.31009V11.1701M13.0781 11.1701V12.5201M13.0781 11.1701H7.66173C6.85557 11.1701 6.07225 11.438 5.43492 11.9317C4.79758 12.4253 4.34237 13.1168 4.14082 13.8974L1.62719 23.6365C1.03264 25.9383 2.77083 28.1819 5.1481 28.1819H24.7036C27.1254 28.1819 28.8708 25.8583 28.1945 23.531L25.3672 13.7928C25.1476 13.0363 24.6884 12.3716 24.0585 11.8986C23.4286 11.4256 22.6622 11.17 21.8745 11.1701H17.1963M14.7254 17.921C13.8163 17.921 13.079 17.1837 13.079 16.2746V12.5201H12.7408C12.3021 12.5203 11.8782 12.6792 11.5474 12.9674C11.2166 13.2556 11.0012 13.6537 10.9408 14.0883L9.79719 22.3337C9.76144 22.5912 9.78133 22.8534 9.85551 23.1025C9.92969 23.3517 10.0564 23.5821 10.2272 23.7781C10.398 23.9741 10.6088 24.1312 10.8454 24.2388C11.0821 24.3464 11.339 24.402 11.599 24.4019H13.6454C14.2417 24.4019 14.7254 24.8846 14.7254 25.4819C14.7259 25.7682 14.8398 26.0426 15.0422 26.2451C15.2447 26.4475 15.5191 26.5614 15.8054 26.5619H18.7145C18.9714 26.5619 19.2255 26.5075 19.4598 26.4021C19.6942 26.2968 19.9036 26.143 20.0742 25.9508C20.2448 25.7587 20.3727 25.5325 20.4496 25.2873C20.5264 25.0421 20.5504 24.7834 20.5199 24.5283L20.4063 23.5737C20.3536 23.1319 20.1407 22.7248 19.8079 22.4295C19.4752 22.1341 19.0457 21.971 18.6008 21.971H16.5436C16.0613 21.971 15.5989 21.7794 15.2579 21.4385C14.9169 21.0975 14.7254 20.635 14.7254 20.1528V17.921ZM14.7254 17.921V14.9501H17.1954M17.1954 14.9501V12.5201M17.1954 14.9501H18.099C18.227 14.9501 18.3536 14.9231 18.4704 14.8709C18.5873 14.8186 18.6917 14.7423 18.7771 14.6469C18.8624 14.5514 18.9265 14.4391 18.9654 14.3171C19.0043 14.1952 19.017 14.0664 19.0026 13.9392L18.9336 13.3274C18.9085 13.1052 18.8025 12.9001 18.6358 12.7512C18.4691 12.6023 18.2534 12.52 18.0299 12.5201H17.1954M17.1954 12.5201L17.1963 11.1701M17.1963 6.31009V11.1701M20.4872 14.6801H23.2326L23.5072 16.031H20.7617L20.4872 14.6801ZM21.0372 17.3801H23.7808L24.0899 19.001H21.3108L21.0372 17.3801ZM21.5854 20.351H24.4545L24.8799 22.2419H21.909L21.5854 20.351Z" stroke="#142254"/>
</svg>
