<svg width="32" height="33" viewBox="0 0 32 33" fill="none" xmlns="http://www.w3.org/2000/svg">
<ellipse cx="16" cy="16.3629" rx="16" ry="16.0895" fill="#142254"/>
<path d="M10.1007 15.7593H22.0991C22.2583 15.7593 22.4108 15.8228 22.5234 15.936C22.6359 16.0491 22.6991 16.2026 22.6991 16.3626C22.6991 16.5226 22.6359 16.676 22.5234 16.7891C22.4108 16.9023 22.2583 16.9658 22.0991 16.9658H10.1007C9.94155 16.9658 9.78895 16.9023 9.67645 16.7891C9.56394 16.676 9.50073 16.5226 9.50073 16.3626C9.50073 16.2026 9.56394 16.0491 9.67645 15.936C9.78895 15.8228 9.94155 15.7593 10.1007 15.7593Z" fill="white"/>
<path d="M10.3489 16.3636L15.3247 21.366C15.4374 21.4793 15.5007 21.633 15.5007 21.7932C15.5007 21.9534 15.4374 22.107 15.3247 22.2203C15.2121 22.3336 15.0593 22.3972 14.9 22.3972C14.7407 22.3972 14.5879 22.3336 14.4752 22.2203L9.07591 16.7908C9.02004 16.7347 8.97571 16.6682 8.94547 16.5949C8.91523 16.5216 8.89966 16.443 8.89966 16.3636C8.89966 16.2843 8.91523 16.2057 8.94547 16.1324C8.97571 16.0591 9.02004 15.9926 9.07591 15.9365L14.4752 10.507C14.5879 10.3937 14.7407 10.3301 14.9 10.3301C15.0593 10.3301 15.2121 10.3937 15.3247 10.507C15.4374 10.6203 15.5007 10.7739 15.5007 10.9341C15.5007 11.0943 15.4374 11.248 15.3247 11.3612L10.3489 16.3636Z" fill="white"/>
</svg>
