<svg width="185" height="80" viewBox="0 0 185 80" fill="none" xmlns="http://www.w3.org/2000/svg">
<rect x="0.440637" y="0.1" width="183.8" height="79.8" rx="7.9" stroke="#363636" stroke-width="0.2"/>
<g clip-path="url(#clip0_59_461)">
<path d="M28.1901 25.3262C28.9683 24.9372 29.8761 24.8724 30.6543 25.2613C36.0364 27.725 41.4185 30.1887 46.8007 32.7171C47.9679 33.1061 48.2273 34.9215 47.0601 35.505C42.7803 37.6445 38.3708 39.4598 34.0262 41.5344C38.1763 43.4146 42.3264 45.3596 46.5413 47.2397C47.2546 47.5639 48.0327 48.0826 47.903 48.9902C47.903 49.9627 46.9304 50.3517 46.2171 50.7407C41.0943 53.0747 35.9716 55.4087 30.8488 57.8075C30.0707 58.1965 29.098 58.1317 28.3198 57.7427C24.9479 56.1867 21.576 54.6307 18.204 53.0747C21.9002 51.389 25.5963 49.6386 29.3574 48.0177C29.7464 47.7584 30.5894 47.6936 30.4597 47.0452C29.6816 46.2672 28.5792 46.0079 27.6065 45.4892C27.1526 45.3596 26.6987 44.9058 26.18 45.2299C21.7705 47.0452 17.5556 48.9902 13.3406 50.9352C13.3406 48.6661 13.3406 46.3321 13.3406 44.0629C15.1563 43.2201 17.0368 42.3773 18.8525 41.5344C17.0368 40.6916 15.1563 39.8488 13.3406 39.0059C13.3406 36.7368 13.3406 34.4028 13.3406 32.1336C17.6853 34.0786 22.0299 36.0236 26.3745 38.0335C27.6714 37.45 28.9683 36.9313 30.2003 36.283C30.4597 35.6346 29.8113 35.3753 29.3574 35.1808C25.5963 33.4303 21.7705 31.7446 18.0095 29.9942C21.3814 28.4382 24.8182 26.8822 28.1901 25.3262Z" fill="#0A51A1"/>
<path d="M64.1143 33.171C68.9777 33.171 73.7762 33.171 78.5747 33.171C80.7146 33.3007 83.1139 33.3007 84.9295 34.6621C86.2913 35.6346 86.6155 37.5148 85.9671 39.006C85.3834 40.2378 84.1514 40.8861 82.9193 41.3399C84.1514 41.8586 85.4483 42.5069 85.9671 43.8036C86.5507 45.3596 86.2264 47.4342 84.735 48.4067C82.9193 49.6386 80.6498 49.7034 78.5099 49.7682C73.6465 49.7682 68.848 49.8331 63.9846 49.7034C64.1143 44.2574 64.1143 38.6818 64.1143 33.171ZM69.4964 36.8016C69.4964 38.6818 69.4964 40.6268 69.4964 42.5069C70.3394 41.3399 70.7285 39.5246 72.4144 39.2653C74.5543 39.1356 76.7591 39.3301 78.8989 39.2005C79.6122 39.1356 80.3904 38.6818 80.3904 37.839C80.1958 37.1906 79.6122 36.7368 78.9638 36.8016C75.7864 36.8016 72.6738 36.8665 69.4964 36.8016ZM69.4964 42.8311C69.4964 45.0354 69.4964 47.2398 69.4964 49.4441C70.2746 48.4067 70.5988 46.7859 71.9605 46.3321C74.1004 46.1376 76.3051 46.3969 78.5099 46.2024C79.5474 46.2024 80.5849 45.2299 80.3255 44.1926C80.131 43.2201 79.0286 42.7663 78.1856 42.8311C75.2676 42.8311 72.4144 42.8311 69.4964 42.8311Z" fill="#0A51A1"/>
<path d="M95.5641 33.171C97.8337 33.171 100.168 33.1061 102.438 33.2358C105.68 38.8114 109.052 44.2574 112.359 49.833C110.219 49.833 108.144 49.833 106.004 49.833C105.485 48.9254 104.902 47.9529 104.383 47.0452L104.189 46.9156C101.141 46.9156 98.1579 46.9156 95.1102 46.9156C95.9532 45.7486 96.3423 43.9981 97.8337 43.4146C99.3251 43.2849 100.817 43.4146 102.308 43.3497C101.141 41.4048 100.168 39.3301 98.9361 37.4499C96.6017 41.5993 94.2672 45.7486 91.868 49.833C89.7929 49.833 87.653 49.833 85.578 49.833C88.8851 44.2574 92.257 38.7466 95.5641 33.171Z" fill="#0A51A1"/>
<path d="M123.901 33.171C125.717 33.171 127.533 33.171 129.284 33.171C129.284 36.9961 129.284 40.7565 129.284 44.5816C129.284 45.9431 129.089 47.4991 128.051 48.4716C126.755 49.7682 124.744 49.8331 122.994 49.8331C120.27 49.7682 117.482 49.8979 114.758 49.7682C113.137 49.3792 112.683 47.4991 111.84 46.2673C115.147 46.2024 118.454 46.3321 121.826 46.2673C122.799 46.2673 123.966 45.6838 123.901 44.5816C123.901 40.7565 123.901 36.9961 123.901 33.171Z" fill="#0A51A1"/>
<path d="M138.556 33.2358C140.826 33.171 143.16 33.2358 145.43 33.2358C148.737 38.8115 152.109 44.3223 155.416 49.8331C153.276 49.8331 151.201 49.8331 149.061 49.8331C148.543 48.8606 147.959 47.8881 147.375 46.9156C144.328 46.9156 141.215 46.9156 138.167 46.9156C139.01 45.7486 139.399 44.1278 140.696 43.4794C142.253 43.2849 143.809 43.4146 145.3 43.3498C144.198 41.3399 143.031 39.395 141.928 37.3851C139.529 41.5344 137.195 45.6838 134.86 49.8331C132.72 49.8331 130.645 49.8331 128.505 49.8331C131.942 44.2574 135.249 38.7466 138.556 33.2358Z" fill="#0A51A1"/>
<path d="M167.023 33.171C168.774 33.171 170.59 33.171 172.341 33.171C172.341 37.2555 172.341 41.2751 172.341 45.3596C172.341 46.7211 171.822 48.0826 170.655 48.8606C169.163 49.8331 167.283 49.7682 165.532 49.7682C163.068 49.7034 160.539 49.8331 158.075 49.7034C156.259 49.5737 155.87 47.4343 154.962 46.2024C158.269 46.2024 161.512 46.2673 164.819 46.2024C165.791 46.2024 167.088 45.6838 167.023 44.5168C167.023 40.7565 166.958 36.9961 167.023 33.171Z" fill="#0A51A1"/>
</g>
<defs>
<clipPath id="clip0_59_461">
<rect width="159" height="33" fill="white" transform="translate(13.3406 25)"/>
</clipPath>
</defs>
</svg>
