<svg width="66" height="59" viewBox="0 0 66 59" fill="none" xmlns="http://www.w3.org/2000/svg">
<path d="M0 41.7373H15.8891V46.5725H11.3308V58.1929H4.70993V46.5725H0V41.7373ZM23.936 48.386L20.5907 58.1929H14.2324L20.4684 41.7373H27.3738L33.7601 58.1929H27.3236L23.936 48.386ZM32.2412 41.7373H48.1296V46.5725H43.5728V58.1929H36.9522V46.5725H32.2412V41.7373ZM56.1794 48.386L52.8328 58.1929H46.4745L52.7126 41.7373H59.6159L66 58.1929H59.5658L56.1794 48.386Z" fill="#486AAE"/>
<path fill-rule="evenodd" clip-rule="evenodd" d="M56.4138 11.5117C55.8205 10.345 55.0391 9.22686 54.0672 8.17827C51.8829 5.82072 48.801 3.85894 45.1539 2.5059C41.4768 1.14238 37.2827 0.420898 33.0206 0.420898C28.7585 0.420898 24.5645 1.14238 20.8892 2.5059C17.2402 3.8591 14.1582 5.82088 11.974 8.17827C11.0026 9.22671 10.2187 10.3464 9.62564 11.5137C14.3737 10.3655 22.4956 8.84955 30.0368 8.68927C30.7643 8.67364 31.2651 8.90662 31.5949 9.32459C31.9966 9.83357 31.9664 11.6479 31.9566 12.4596L31.7422 33.4394C32.1669 33.4534 32.5936 33.4625 33.0206 33.4625C33.4513 33.4625 33.8803 33.4555 34.305 33.4414L34.0907 12.4594C34.0796 11.6479 34.0484 9.83341 34.4516 9.32444C34.7821 8.90662 35.2812 8.67364 36.0085 8.68912C43.5466 8.84814 51.6666 10.3644 56.4138 11.5117Z" fill="#486AAE"/>
<path fill-rule="evenodd" clip-rule="evenodd" d="M57.4275 14.2402C50.4782 12.6692 45.8374 12.3787 41.2584 12.1246C37.2669 11.9027 37.2149 13.328 37.6133 16.0517C37.6394 16.2179 37.6715 16.4275 37.7095 16.6664C39.0483 24.5961 40.7155 31.4199 41.0019 32.5782C50.7326 30.3538 57.7502 24.1869 57.7502 16.9424C57.7502 16.0302 57.64 15.1264 57.4275 14.2402ZM28.4317 16.0517C28.8306 13.3281 28.7795 11.9027 24.7885 12.1246C20.2079 12.3787 15.566 12.669 8.6141 14.2412C8.40175 15.1273 8.29011 16.03 8.29011 16.9422C8.29011 20.0733 9.56387 23.1031 11.9741 25.7061C14.1584 28.0637 17.2404 30.0255 20.8894 31.3794C22.2101 31.8684 23.6038 32.2692 25.0394 32.5897C25.3088 31.5047 27.0143 24.5389 28.3676 16.4674C28.3926 16.3127 28.4158 16.1699 28.4317 16.0517Z" fill="#486AAE"/>
</svg>
