<svg width="42" height="42" viewBox="0 0 42 42" fill="none" xmlns="http://www.w3.org/2000/svg">
<g clip-path="url(#clip0_3_3412)">
<path d="M41.7222 22.9547C41.7222 20.8889 40.8633 19.0222 39.4872 17.6844L40.3576 16.0856C40.6867 15.4807 40.6724 14.7376 40.3207 14.1461C39.98 13.5726 39.3858 13.23 38.7316 13.23H35.2182L33.9458 10.6096C32.6475 7.93482 30.0645 6.27332 27.2053 6.27332H14.7482C11.8894 6.27332 9.30633 7.93482 8.00765 10.6096L6.73524 13.23H3.22184C2.5672 13.23 1.97295 13.5726 1.6318 14.1465C1.28051 14.738 1.26668 15.4812 1.59538 16.086L2.46532 17.6848C1.08965 19.0222 0.230774 20.8889 0.230774 22.9547C0.230774 25.18 1.22841 27.1739 2.79494 28.5242V32.3387C2.79494 34.1809 4.23469 35.6797 6.00407 35.6797H8.62034C10.3902 35.6797 11.8299 34.1809 11.8299 32.3387V30.3121H30.123V32.3387C30.123 34.1809 31.5628 35.6797 33.3326 35.6797H35.9489C37.7187 35.6797 39.1585 34.1809 39.1585 32.3387V28.5242C40.725 27.1739 41.7222 25.18 41.7222 22.9547ZM38.721 15.0704C38.7288 15.0755 38.7758 15.134 38.7376 15.2046L37.9972 16.565C37.5348 16.3009 37.0433 16.0823 36.5252 15.9228L36.1125 15.0732L38.721 15.0704ZM9.66638 11.415C10.6539 9.38102 12.6012 8.11738 14.7477 8.11738H27.2043C29.3513 8.11738 31.2986 9.38102 32.2861 11.415L34.3169 15.5974H7.63561L9.66638 11.415ZM3.21539 15.2041C3.17712 15.1336 3.22461 15.0755 3.22184 15.0741H5.83995L5.42826 15.9224C4.91008 16.0819 4.41864 16.3009 3.95624 16.565L3.21539 15.2041ZM2.07484 22.9547C2.07484 20.1494 4.1826 17.8314 6.8966 17.4898H35.0568C37.7708 17.8314 39.8781 20.1494 39.8781 22.9547C39.8781 25.9946 37.4052 28.4675 34.3653 28.4675H7.58766C4.54819 28.4675 2.07484 25.9946 2.07484 22.9547ZM9.98586 32.3387C9.98586 33.1639 9.37317 33.8356 8.62034 33.8356H6.00407C5.25123 33.8356 4.63901 33.1639 4.63901 32.3387V29.6901C5.5426 30.0875 6.53885 30.3116 7.58766 30.3116H9.98586V32.3387ZM37.3139 32.3387C37.3139 33.1639 36.7013 33.8356 35.9484 33.8356H33.3322C32.5793 33.8356 31.9666 33.1639 31.9666 32.3387V30.3121H34.3648C35.4136 30.3121 36.4099 30.088 37.3135 29.6906V32.3387H37.3139Z" fill="white"/>
<path d="M10.2122 25.9389H6.70573C4.99675 25.9389 3.60632 24.5484 3.60632 22.8395C3.60632 21.1305 4.99675 19.7401 6.70573 19.7401H10.2122C11.9212 19.7401 13.3116 21.1305 13.3116 22.8395C13.3116 24.5484 11.9212 25.9389 10.2122 25.9389ZM6.70573 21.5841C6.01375 21.5841 5.45039 22.1475 5.45039 22.8395C5.45039 23.5314 6.01329 24.0948 6.70573 24.0948H10.2122C10.9042 24.0948 11.4676 23.5314 11.4676 22.8395C11.4676 22.1475 10.9042 21.5841 10.2122 21.5841H6.70573Z" fill="white"/>
<path d="M35.2472 25.9389H31.7407C30.0317 25.9389 28.6413 24.5484 28.6413 22.8395C28.6413 21.1305 30.0317 19.7401 31.7407 19.7401H35.2472C36.9562 19.7401 38.3466 21.1305 38.3466 22.8395C38.3466 24.5484 36.9562 25.9389 35.2472 25.9389ZM31.7407 21.5841C31.0488 21.5841 30.4854 22.1475 30.4854 22.8395C30.4854 23.5314 31.0488 24.0948 31.7407 24.0948H35.2472C35.9392 24.0948 36.5026 23.5314 36.5026 22.8395C36.5026 22.1475 35.9392 21.5841 35.2472 21.5841H31.7407Z" fill="white"/>
<path d="M24.8946 22.525H17.0583C16.5493 22.525 16.1363 22.112 16.1363 21.603C16.1363 21.094 16.5493 20.681 17.0583 20.681H24.8946C25.4036 20.681 25.8167 21.094 25.8167 21.603C25.8167 22.112 25.4041 22.525 24.8946 22.525Z" fill="white"/>
<path d="M24.8946 25.2285H17.0583C16.5493 25.2285 16.1363 24.8154 16.1363 24.3064C16.1363 23.7975 16.5493 23.3844 17.0583 23.3844H24.8946C25.4036 23.3844 25.8167 23.7975 25.8167 24.3064C25.8167 24.8154 25.4041 25.2285 24.8946 25.2285Z" fill="white"/>
<path d="M28.335 13.67C31.8337 13.67 34.67 10.8337 34.67 7.335C34.67 3.83628 31.8337 1 28.335 1C24.8363 1 22 3.83628 22 7.335C22 10.8337 24.8363 13.67 28.335 13.67Z" fill="#142254" stroke="white" stroke-width="1.5"/>
<path d="M26.1177 7.65172L27.3847 8.91872L30.5522 5.75122" stroke="white" stroke-width="1.5" stroke-linecap="round" stroke-linejoin="round"/>
</g>
<defs>
<clipPath id="clip0_3_3412">
<rect width="42" height="42" fill="white"/>
</clipPath>
</defs>
</svg>
