<svg width="30" height="33" viewBox="0 0 30 33" fill="none" xmlns="http://www.w3.org/2000/svg">
<path d="M24.0505 22.8606C24.0144 22.7163 24.0144 22.5 24.0144 22.2476L23.6899 16.0096C23.6899 14.9279 23.2933 13.9904 22.5721 13.3413C21.7067 12.5481 20.5529 12.2957 19.7236 12.2236V1.94712C19.7236 0.865384 18.8582 0 17.7764 0H4.79567C3.71394 0 2.84856 0.865384 2.84856 1.94712V30.4327H0.973558C0.432693 30.4327 0 30.8654 0 31.4062C0 31.9471 0.432693 32.3798 0.973558 32.3798H4.79567H17.7764H21.5986C22.1394 32.3798 22.5721 31.9471 22.5721 31.4062C22.5721 30.8654 22.1394 30.4327 21.5986 30.4327H19.7236V14.1346C20.2644 14.2067 20.8774 14.387 21.274 14.7476C21.5986 15.0361 21.7428 15.4327 21.7428 16.0096V16.0457L22.0673 22.7163C22.1034 22.9688 22.1394 23.2933 22.1394 23.3654C22.4639 25.2043 24.0865 26.6106 26.0337 26.6106C28.2332 26.6106 30 24.8438 30 22.6442C30 22.6082 30 22.6082 30 22.5721L29.1346 10.601C29.0625 9.73558 28.8462 7.96875 29.3149 7.57212C30.0721 6.92308 28.738 4.54327 28.738 4.54327C27.3317 1.47837 24.0865 0.216346 24.0865 0.216346L23.9423 0.180288C23.8702 0.144231 23.8341 0.144231 23.762 0.144231C23.726 0.144231 23.726 0.144231 23.726 0.144231C23.6899 0.144231 23.6538 0.144231 23.6178 0.180288C23.5817 0.180288 23.5817 0.216346 23.5457 0.216346C23.4736 0.252404 23.4014 0.360577 23.4014 0.504808C23.4014 0.793269 23.6178 0.865385 23.6178 0.865385C24.4111 1.29808 25.0962 2.09135 25.5288 2.70433C25.7091 2.95673 25.8534 3.20913 25.9976 3.42548C25.9976 3.46154 26.0337 3.46154 26.0337 3.46154C26.0697 3.53365 26.1058 3.60577 26.1418 3.67788C26.1418 3.71394 26.1779 3.75 26.1779 3.78606C26.3942 4.25481 26.5024 4.54327 26.5024 4.54327C27.1875 6.38221 27.3317 8.25721 27.3317 8.25721V8.36539L28.0889 22.6803C28.0889 23.762 27.1875 24.6635 26.0697 24.6635C25.0962 24.6635 24.3029 23.9784 24.0865 23.0769M4.79567 1.94712H17.7764V12.1514H4.79567V1.94712ZM4.79567 30.4327V14.0986H17.7764V30.4327H4.79567Z" fill="#142254"/>
<path d="M10.545 25H8.19061V17.7273H10.6196C11.3322 17.7273 11.9442 17.8729 12.4555 18.1641C12.9669 18.4529 13.3587 18.8684 13.6309 19.4105C13.9056 19.9503 14.0429 20.5978 14.0429 21.353C14.0429 22.1106 13.9044 22.7616 13.6274 23.3061C13.3528 23.8506 12.955 24.2696 12.4342 24.5632C11.9134 24.8544 11.2836 25 10.545 25ZM9.28791 24.0412H10.4846C11.0386 24.0412 11.4991 23.937 11.866 23.7287C12.233 23.518 12.5076 23.2138 12.6899 22.8161C12.8722 22.416 12.9633 21.9283 12.9633 21.353C12.9633 20.7824 12.8722 20.2983 12.6899 19.9006C12.51 19.5028 12.2413 19.201 11.8838 18.995C11.5263 18.7891 11.0824 18.6861 10.5521 18.6861H9.28791V24.0412Z" fill="#142254"/>
</svg>
