<svg width="42" height="42" viewBox="0 0 42 42" fill="none" xmlns="http://www.w3.org/2000/svg">
<path fill-rule="evenodd" clip-rule="evenodd" d="M19.1513 2.1875H22.8487C26.0648 2.18747 28.6122 2.18745 30.6058 2.4555C32.6574 2.73133 34.3182 3.31254 35.6279 4.62217C36.1403 5.13475 36.1403 5.96577 35.6279 6.47833C35.1153 6.9909 34.2842 6.9909 33.7717 6.47833C33.0311 5.73771 32.0166 5.29379 30.2561 5.05708C28.4576 4.81528 26.0869 4.8125 22.75 4.8125H19.25C15.9131 4.8125 13.5424 4.81528 11.744 5.05708C9.98333 5.29379 8.96894 5.73771 8.22833 6.47833C7.48771 7.21894 7.04379 8.23333 6.80708 9.99399C6.56528 11.7924 6.5625 14.1631 6.5625 17.5V24.5C6.5625 27.8369 6.56528 30.2076 6.80708 32.0061C7.04379 33.7666 7.48771 34.7811 8.22833 35.5217C8.96894 36.2623 9.98333 36.7062 11.744 36.9428C13.5424 37.1847 15.9131 37.1875 19.25 37.1875H22.75C26.0869 37.1875 28.4576 37.1847 30.2561 36.9428C32.0166 36.7062 33.0311 36.2623 33.7717 35.5217C34.9895 34.3038 35.3584 32.4114 35.4224 27.9811C35.4329 27.2562 36.029 26.6772 36.7538 26.6877C37.4785 26.6982 38.0576 27.2942 38.0471 28.0189C37.9857 32.267 37.7108 35.2949 35.6279 37.3779C34.3182 38.6874 32.6574 39.2686 30.6058 39.5446C28.6122 39.8125 26.0648 39.8125 22.8487 39.8125H19.1513C15.9352 39.8125 13.3878 39.8125 11.3942 39.5446C9.34248 39.2686 7.68182 38.6874 6.37217 37.3779C5.06254 36.0682 4.48133 34.4074 4.2055 32.3557C3.93745 30.3621 3.93747 27.8148 3.9375 24.5987V17.4013C3.93747 14.1852 3.93745 11.6378 4.2055 9.64422C4.48133 7.59248 5.06254 5.93182 6.37217 4.62217C7.68182 3.31254 9.34248 2.73133 11.3942 2.4555C13.3878 2.18745 15.9352 2.18747 19.1513 2.1875ZM31.6979 12.3297C33.5543 10.4734 36.564 10.4734 38.4202 12.3297C40.2766 14.186 40.2766 17.1957 38.4202 19.0521L30.0984 27.3738C29.6457 27.8267 29.3394 28.133 28.9963 28.4006C28.5927 28.7154 28.1561 28.9852 27.6941 29.2056C27.3012 29.3926 26.8903 29.5297 26.2827 29.732L22.6364 30.9475C21.8314 31.2158 20.9438 31.0063 20.3438 30.4062C19.7437 29.8062 19.5342 28.9186 19.8025 28.1136L20.9935 24.5406C21.0017 24.5159 21.0098 24.4914 21.0178 24.4673C21.2203 23.8598 21.3573 23.4488 21.5444 23.0559C21.7647 22.5939 22.0346 22.1573 22.3494 21.7537C22.617 21.4105 22.9232 21.1043 23.3761 20.6516C23.3942 20.6335 23.4124 20.6153 23.4309 20.5968L31.6979 12.3297ZM36.5642 14.1859C35.7329 13.3547 34.3854 13.3547 33.5541 14.1859L33.236 14.504C33.2533 14.5626 33.2731 14.6249 33.2958 14.6904C33.4603 15.1649 33.7729 15.7925 34.3651 16.3848C34.9575 16.9772 35.585 17.2896 36.0596 17.4542C36.1251 17.4769 36.1874 17.4967 36.246 17.514L36.5642 17.1958C37.3952 16.3647 37.3952 15.0171 36.5642 14.1859ZM34.2412 19.5188C33.6849 19.2265 33.0843 18.8162 32.509 18.2409C31.9338 17.6657 31.5234 17.0651 31.2312 16.5087L25.287 22.453C24.7602 22.9799 24.5753 23.1679 24.4192 23.3681C24.2218 23.6213 24.0524 23.8954 23.9141 24.1853C23.8049 24.4144 23.7193 24.6638 23.4838 25.3708L22.7833 27.4724L23.2776 27.9667L25.3792 27.2662C26.0862 27.0307 26.3356 26.9451 26.5646 26.8359C26.8546 26.6976 27.1287 26.5282 27.3819 26.3308C27.5821 26.1747 27.7701 25.9898 28.297 25.463L34.2412 19.5188ZM12.6875 15.75C12.6875 15.0251 13.2751 14.4375 14 14.4375H25.375C26.0998 14.4375 26.6875 15.0251 26.6875 15.75C26.6875 16.4749 26.0998 17.0625 25.375 17.0625H14C13.2751 17.0625 12.6875 16.4749 12.6875 15.75ZM12.6875 22.75C12.6875 22.0251 13.2751 21.4375 14 21.4375H18.375C19.0998 21.4375 19.6875 22.0251 19.6875 22.75C19.6875 23.4748 19.0998 24.0625 18.375 24.0625H14C13.2751 24.0625 12.6875 23.4748 12.6875 22.75ZM12.6875 29.75C12.6875 29.0251 13.2751 28.4375 14 28.4375H16.625C17.3499 28.4375 17.9375 29.0251 17.9375 29.75C17.9375 30.4748 17.3499 31.0625 16.625 31.0625H14C13.2751 31.0625 12.6875 30.4748 12.6875 29.75Z" fill="white"/>
</svg>
