<svg width="308" height="340" viewBox="0 0 308 340" fill="none" xmlns="http://www.w3.org/2000/svg">
<path d="M225.737 235.758C223.173 234.798 220.377 233.476 217.536 231.911L170.011 297.607L166.631 254.568H141.376L137.995 297.607L90.4705 231.911C87.5434 233.548 84.7226 234.89 82.2623 235.758C57.3754 244.519 -3.76339 269.714 0.182333 316.91C1.12925 328.236 63.4129 339.989 154.004 339.989C244.587 339.989 306.871 328.236 307.818 316.91C311.764 269.669 250.467 245.006 225.737 235.758Z" fill="#BDBDBD"/>
<path d="M97.8893 138.301C101.349 157.9 107.163 175.191 114.818 183.708C114.818 193.922 114.818 201.374 114.818 207.339C114.818 207.938 114.713 208.569 114.542 209.22L141.376 222.144V241.099H166.631V222.144L193.452 209.227C193.281 208.575 193.176 207.944 193.176 207.339C193.176 201.374 193.176 193.922 193.176 183.708C200.844 175.191 206.658 157.9 210.118 138.301C218.181 135.42 222.798 130.81 228.553 110.638C234.683 89.1511 219.339 89.8816 219.339 89.8816C231.75 48.7954 215.406 10.1822 188.047 13.017C169.171 -20.0057 105.953 20.5605 86.1298 17.733C86.1298 29.0582 90.8524 37.5493 90.8524 37.5493C83.9604 50.6242 86.6172 76.6951 88.5641 89.8816C87.4326 89.8616 73.5555 90.0064 79.4482 110.638C85.2088 130.81 89.8125 135.421 97.8893 138.301Z" fill="#BDBDBD"/>
</svg>
