<svg width="48" height="42" viewBox="0 0 48 42" fill="none" xmlns="http://www.w3.org/2000/svg">
<path fill-rule="evenodd" clip-rule="evenodd" d="M24.1855 0.000460906C23.3868 -0.00488338 22.5907 0.0362634 21.8004 0.123108C17.5854 0.585923 13.5473 2.33749 10.3133 5.21427C10.1822 5.33094 10.0753 5.47228 9.99887 5.63024C9.92241 5.78821 9.87784 5.95973 9.86767 6.13494C9.85749 6.31014 9.88193 6.48562 9.93959 6.65138C9.99725 6.81713 10.087 6.96989 10.2037 7.10095C10.3204 7.23205 10.4617 7.33885 10.6197 7.41531C10.7777 7.49177 10.9491 7.53643 11.1244 7.5466C11.2996 7.55678 11.4751 7.53234 11.6408 7.47468C11.8066 7.41701 11.9593 7.32727 12.0904 7.21055C17.7145 2.20775 26.1276 1.10225 33.0213 5.07857C34.1628 5.73698 35.2019 6.49966 36.1371 7.34877C36.3994 7.58673 36.7456 7.71085 37.0993 7.69371C37.4531 7.67658 37.7856 7.51964 38.0238 7.25744C38.2621 6.99542 38.3866 6.64953 38.3699 6.29575C38.3533 5.94197 38.1969 5.60926 37.935 5.37076C36.8598 4.39444 35.6621 3.51792 34.3548 2.76385C31.1473 0.913784 27.6462 0.0219048 24.1855 0.000460906ZM41.1421 10.5481C40.9675 10.5618 40.7972 10.6097 40.6411 10.689C40.3252 10.8493 40.0859 11.1285 39.9758 11.4651C39.8657 11.8018 39.8938 12.1684 40.0539 12.4844C42.5175 17.337 42.7317 23.2093 40.2261 28.3972L39.6286 24.4751C39.5752 24.1249 39.3849 23.8103 39.0997 23.6004C38.8144 23.3905 38.4574 23.3024 38.1072 23.3556C37.7571 23.409 37.4425 23.5992 37.2325 23.8845C37.0226 24.1698 36.9346 24.5268 36.9877 24.877L38.149 32.5046C38.1791 32.7029 38.2534 32.8918 38.3664 33.0575C38.4795 33.2231 38.6284 33.3612 38.8021 33.4614C38.9758 33.5617 39.1698 33.6216 39.3698 33.6366C39.5698 33.6516 39.7706 33.6215 39.9574 33.5484L47.1518 30.7405C47.4814 30.6113 47.7463 30.3564 47.8882 30.032C48.0301 29.7077 48.0374 29.3402 47.9086 29.0104C47.7798 28.6803 47.5252 28.4148 47.2008 28.2724C46.8763 28.13 46.5086 28.1223 46.1785 28.2511L42.5878 29.6524C45.507 23.6825 45.2811 16.8797 42.4364 11.2762C42.3569 11.1196 42.2473 10.9802 42.1138 10.8661C41.9804 10.7519 41.8258 10.6651 41.6588 10.6107C41.4923 10.5562 41.3168 10.5349 41.1421 10.5481Z" fill="white"/>
<path fill-rule="evenodd" clip-rule="evenodd" d="M8.43163 7.55747C8.29832 7.56742 8.16725 7.59733 8.04281 7.64619L0.848382 10.454C0.518739 10.5833 0.253864 10.838 0.111969 11.1624C-0.0299261 11.4868 -0.037232 11.8543 0.091623 12.1841C0.220361 12.5142 0.474959 12.7796 0.799413 12.9221C1.12387 13.0645 1.49161 13.0722 1.82173 12.9435L5.41242 11.5422C1.89169 18.7429 2.94734 27.1522 7.654 33.2168C7.87106 33.4966 8.19031 33.6788 8.54164 33.7233C8.89297 33.7678 9.24762 33.6711 9.52763 33.4543C9.80744 33.2372 9.98963 32.918 10.0342 32.5666C10.0787 32.2153 9.98191 31.8607 9.76509 31.5806C5.68909 26.3286 4.74773 19.0595 7.77403 12.7948L8.37161 16.7195C8.42502 17.0696 8.61525 17.3842 8.90053 17.5941C9.18581 17.8041 9.54278 17.8921 9.89296 17.8389C10.2431 17.7855 10.5577 17.5953 10.7676 17.31C10.9776 17.0248 11.0656 16.6678 11.0124 16.3176L9.85121 8.69C9.8008 8.35709 9.62659 8.05547 9.36339 7.84549C9.10019 7.63551 8.76741 7.53266 8.43163 7.55747ZM36.5283 33.6735C36.2984 33.7209 36.0851 33.828 35.9098 33.984C30.2858 38.9868 21.8726 40.0923 14.9789 36.116C14.6719 35.9393 14.3074 35.8916 13.9653 35.9836C13.6233 36.0756 13.3318 36.2997 13.1549 36.6066C12.9781 36.9135 12.9305 37.2781 13.0225 37.6201C13.1145 37.9622 13.3386 38.2537 13.6454 38.4306C21.5407 42.9846 31.2188 41.7338 37.6869 35.9803C37.818 35.8636 37.9248 35.7223 38.0013 35.5643C38.0778 35.4063 38.1223 35.2348 38.1325 35.0596C38.1427 34.8844 38.1183 34.7089 38.0606 34.5432C38.0029 34.3774 37.9132 34.2247 37.7965 34.0936C37.6405 33.9184 37.4412 33.7874 37.2186 33.7137C36.996 33.6399 36.7579 33.626 36.5283 33.6735Z" fill="white"/>
<path fill-rule="evenodd" clip-rule="evenodd" d="M24.0418 8.64087C17.4465 8.64087 12.0693 14.0089 12.0693 20.5977C12.0693 27.1865 17.4465 32.5545 24.0418 32.5545C30.6371 32.5545 36.0142 27.1865 36.0142 20.5977C36.0142 18.5327 35.4877 16.581 34.5607 14.8828C34.4767 14.7287 34.363 14.5927 34.2264 14.4826C34.0897 14.3724 33.9326 14.2903 33.7642 14.2409C33.5958 14.1914 33.4193 14.1757 33.2448 14.1945C33.0702 14.2133 32.9011 14.2663 32.7471 14.3505C32.4366 14.5203 32.2062 14.8064 32.1064 15.1459C32.0066 15.4854 32.0456 15.8507 32.2148 16.1615C32.9341 17.4793 33.3421 18.9859 33.3421 20.5977C33.3421 25.7402 29.1951 29.8823 24.0418 29.8823C18.8885 29.8823 14.7415 25.7402 14.7415 20.5977C14.7415 15.4552 18.8885 11.313 24.0418 11.313C25.8404 11.313 27.5092 11.8185 28.9294 12.6961C29.2306 12.8818 29.5931 12.9406 29.9375 12.8594C30.2819 12.7782 30.5801 12.5636 30.7665 12.2629C30.8589 12.1136 30.921 11.9477 30.9493 11.7745C30.9775 11.6013 30.9713 11.4241 30.9311 11.2532C30.8908 11.0824 30.8174 10.9211 30.7148 10.7787C30.6122 10.6363 30.4826 10.5155 30.3333 10.4232C28.5053 9.29365 26.3437 8.64087 24.0418 8.64087Z" fill="white"/>
<path d="M20.9962 16.1383H24.3295C25.8022 16.1383 26.9962 17.3322 26.9962 18.805C26.9962 20.2777 25.8022 21.4716 24.3295 21.4716H22.3295L26.3295 25.4716" stroke="white" stroke-width="1.3" stroke-linecap="round" stroke-linejoin="round"/>
<path d="M20.3295 16.1383H28.3295" stroke="white" stroke-width="1.3" stroke-linecap="round" stroke-linejoin="round"/>
<path d="M21.6628 18.8049H28.3294" stroke="white" stroke-width="1.3" stroke-linecap="round" stroke-linejoin="round"/>
</svg>
