<svg width="50" height="50" viewBox="0 0 50 50" fill="none" xmlns="http://www.w3.org/2000/svg">
<path d="M13.9068 4.92322L13.5302 4.82066L13.2301 5.07022L11.741 6.30862C11.4073 5.59018 11.2339 4.80764 11.2339 4.00574V2.0178C11.2339 1.31994 11.8021 0.751709 12.5 0.751709C13.1978 0.751709 13.7661 1.31994 13.7661 2.0178V2.8242C13.7661 3.45993 14.2831 3.97749 14.9194 3.97749C15.5555 3.97749 16.0726 3.4603 16.0726 2.8242V2.0178C16.0726 1.31994 16.6409 0.751709 17.3387 0.751709C18.0366 0.751709 18.6048 1.31994 18.6048 2.0178V2.8242C18.6048 3.45993 19.1218 3.97749 19.7581 3.97749C20.3942 3.97749 20.9114 3.4603 20.9114 2.8242V2.0178C20.9114 1.31994 21.4796 0.751709 22.1775 0.751709C22.8753 0.751709 23.4436 1.31994 23.4436 2.0178V4.00574C23.4436 5.07074 23.1377 6.10212 22.5571 6.99294L22.3428 7.22084L13.9068 4.92322Z" stroke="white" stroke-width="1.5"/>
<path d="M9.86774 20.1597L8.25476 19.3533H5.64516V7.25659H0V22.5791H5.64516V20.9661H7.87413L9.48711 21.7725H10.4839V20.1595L9.86774 20.1597ZM4.03218 20.9663H1.61297V8.8694H4.03235V20.9663H4.03218Z" fill="white"/>
<path d="M17.3419 37.1467L17.3397 37.1466C12.2935 36.9432 8.09996 32.6527 8.00945 27.5987L8.00945 27.5986C7.96226 24.9873 8.93822 22.5217 10.7593 20.6496L10.7594 20.6495C12.505 18.8542 13.5328 16.6151 13.6432 14.2975L16.8321 12.2495L17.7982 13.2156V20.9662V21.7162H18.5482H24.1934H24.5102L24.731 21.4891L25.1265 21.0824C26.6478 22.8455 27.4756 25.0662 27.4756 27.4211C27.4756 30.0975 26.4144 32.5877 24.4834 34.4423L24.4833 34.4423C22.6524 36.2013 20.2759 37.1548 17.7475 37.1548C17.6101 37.1548 17.4758 37.1524 17.3419 37.1467Z" stroke="white" stroke-width="1.5"/>
<path d="M15 25.8215H15.8431C16.8765 25.8215 17.5059 26.1883 17.6721 26.9217H15V27.554H17.7081C17.6254 28.4264 16.9362 28.9959 15.6535 28.9959H15V29.7798C16.1165 31.0443 16.9833 32.1446 17.9102 33.3333H19.0504C18.0523 32.0309 17.0427 30.7407 16.1165 29.7166C17.6365 29.6661 18.599 28.8442 18.7174 27.5544H20V26.9221H18.7051C18.6343 26.34 18.3846 25.9233 18.0401 25.6323H19.9996V25H15V25.8215Z" fill="white"/>
<path d="M25.1775 11.292C25.5646 10.8628 25.8065 10.2991 25.8065 9.67748C25.8065 8.34369 24.7211 7.25644 23.3871 7.25644H20.3856L19.8242 6.55481L13.5219 4.75244L8.57921 8.86925H4.83887V10.4822H9.16306L13.8985 6.53782L18.8864 7.96356L20.5831 10.0838C20.8074 10.3644 20.9065 10.7161 20.8613 11.0724C20.8162 11.4289 20.6323 11.745 20.3444 11.9603C19.8242 12.3506 19.0848 12.2981 18.6235 11.8377L16.996 10.2102L12.4002 13.8871L13.4075 15.1467L16.8759 12.3717L17.4825 12.9789C17.5712 13.0677 17.6704 13.1401 17.768 13.2151C17.8268 13.8038 18.0413 14.1498 18.3712 14.5151C17.984 14.9442 17.7422 15.507 17.7422 16.1287C17.7422 16.7504 17.9849 17.3134 18.3712 17.7417C17.984 18.1708 17.7422 18.7312 17.7422 19.353C17.7422 20.6884 18.8276 21.7724 20.1615 21.7724H23.3873C24.7211 21.7724 25.8067 20.6884 25.8067 19.3547C25.8067 18.7328 25.564 18.1716 25.1777 17.7425C25.5648 17.3134 25.8067 16.7522 25.8067 16.1295C25.8067 15.507 25.564 14.9457 25.1777 14.5166C25.5648 14.0875 25.8067 13.5254 25.8067 12.9036C25.8065 12.2823 25.5638 11.7209 25.1775 11.292ZM23.3871 20.1596H20.1614C19.7169 20.1596 19.355 19.7974 19.355 19.3532C19.355 18.9087 19.7171 18.5468 20.1614 18.5468H23.3871C23.8316 18.5468 24.1935 18.9089 24.1935 19.3532C24.1937 19.7976 23.8316 20.1596 23.3871 20.1596ZM23.3871 16.9338H20.1614C19.7169 16.9338 19.355 16.5716 19.355 16.1274C19.355 15.6829 19.7171 15.321 20.1614 15.321H23.3871C23.8316 15.321 24.1935 15.6831 24.1935 16.1274C24.1937 16.5718 23.8316 16.9338 23.3871 16.9338ZM23.3871 13.708H20.3992C20.7211 13.6121 21.0316 13.462 21.3121 13.2516C21.7185 12.9467 22.0185 12.546 22.2186 12.0952H23.3871C23.8316 12.0952 24.1935 12.4573 24.1935 12.9016C24.1935 13.3459 23.8316 13.708 23.3871 13.708ZM23.3871 10.4822H22.4411C22.367 9.97416 22.1726 9.49025 21.842 9.07663L21.6759 8.86941H23.3871C23.8316 8.86941 24.1935 9.23155 24.1935 9.67582C24.1937 10.1201 23.8316 10.4822 23.3871 10.4822Z" fill="white"/>
<path d="M44.3551 37.9016V40.3209H38.9543L36.7381 38.8436L29.9414 36.433C29.2946 36.2056 28.6003 36.2516 27.989 36.5621C27.3768 36.8726 26.9309 37.4048 26.7316 38.0613C26.3873 39.1975 26.8986 40.4274 27.947 40.9839L29.6929 41.9113L27.1543 41.9193L26.1106 39.3097C25.7672 38.4548 24.9501 37.9016 24.0276 37.9016C23.3075 37.9016 22.6268 38.2515 22.2066 38.8354C21.7865 39.4209 21.6727 40.1774 21.9026 40.8597L22.1469 41.5838L20.3775 40.6168C19.8147 40.308 19.142 40.2483 18.5332 40.4539C17.9243 40.6571 17.4234 41.1095 17.1589 41.6942C16.6412 42.8378 17.1178 44.1692 18.2437 44.7249L22.2244 46.6894L30.4873 48.37L41.2091 48.3853L44.3551 47.7563V49.9983H50.0002V37.9016H44.3551ZM23.5164 39.7766C23.7874 39.3991 24.4405 39.4791 24.6123 39.9097L25.4187 41.9249L23.9655 41.9298L23.4316 40.3443C23.3663 40.1499 23.3969 39.9435 23.5164 39.7766ZM41.0493 46.7725H30.7252L22.8429 45.1958L18.9575 43.2789C18.6163 43.1103 18.4712 42.7063 18.6285 42.3587C18.7099 42.1788 18.8575 42.045 19.0454 41.9829C19.2316 41.9184 19.4317 41.9369 19.6051 42.0329L22.3753 43.5466H30.0294L33.2117 41.9554L28.7044 39.5595C28.3351 39.3628 28.1544 38.9297 28.2753 38.5289C28.3455 38.2975 28.5027 38.1088 28.7189 37.9999C28.9343 37.8894 29.1793 37.8749 29.4075 37.9539L35.9286 40.2418L38.4657 41.9338H44.3552V46.1112L41.0493 46.7725ZM48.3873 48.3853H45.9679V39.5144H48.3873V48.3853Z" fill="white"/>
</svg>
