<svg width="50" height="50" viewBox="0 0 50 50" fill="none" xmlns="http://www.w3.org/2000/svg">
<path d="M0.448192 25.8076L5.8091 29.6402C5.91164 29.7133 6.02756 29.7654 6.15023 29.7936C6.27291 29.8218 6.39995 29.8255 6.52407 29.8046C6.6482 29.7837 6.767 29.7385 6.87366 29.6717C6.98033 29.6049 7.07278 29.5177 7.14574 29.4151L10.9784 24.0542C11.0517 23.9513 11.104 23.835 11.1323 23.7119C11.1607 23.5888 11.1645 23.4614 11.1436 23.3368C11.1227 23.2123 11.0775 23.093 11.0105 22.986C10.9435 22.8789 10.8561 22.786 10.7532 22.7127C10.6503 22.6394 10.5341 22.5871 10.411 22.5588C10.2879 22.5304 10.1604 22.5266 10.0359 22.5475C9.9113 22.5684 9.79208 22.6137 9.685 22.6806C9.57792 22.7476 9.48508 22.835 9.41179 22.9379L6.93015 26.4112C6.23069 23.3503 6.26044 20.1678 7.01701 17.1204C7.77358 14.0731 9.23579 11.2462 11.2857 8.86786C13.3356 6.48949 15.9158 4.6262 18.8181 3.4283C21.7205 2.2304 24.8638 1.73141 27.9944 1.9716C31.1251 2.21178 34.1555 3.18441 36.8412 4.81103C39.5268 6.43765 41.7926 8.67272 43.4557 11.3359C45.1188 13.9992 46.1327 17.016 46.4155 20.1431C46.6984 23.2702 46.2423 26.42 45.0841 29.3384C45.0375 29.4554 45.0143 29.5805 45.016 29.7065C45.0177 29.8324 45.0443 29.9568 45.0941 30.0725C45.1439 30.1882 45.2161 30.2929 45.3065 30.3807C45.3968 30.4685 45.5036 30.5376 45.6207 30.584C45.7336 30.6286 45.8539 30.6514 45.9752 30.6511C46.1671 30.6513 46.3546 30.5939 46.5135 30.4862C46.6724 30.3786 46.7953 30.2257 46.8663 30.0475C48.1333 26.8543 48.6332 23.4083 48.3257 19.9867C48.0182 16.5651 46.9119 13.2634 45.0959 10.3473C43.2798 7.43113 40.8047 4.98194 37.8696 3.19671C34.9345 1.41148 31.6214 0.340058 28.1967 0.0686281C24.7721 -0.202802 21.3315 0.33334 18.1518 1.63392C14.9722 2.93451 12.1421 4.96322 9.88939 7.55687C7.63665 10.1505 6.02409 13.2367 5.18145 16.5671C4.33881 19.8976 4.2896 23.3793 5.03778 26.7322L1.55966 24.2506C1.45803 24.1686 1.34072 24.1083 1.21493 24.0733C1.08914 24.0383 0.957532 24.0294 0.828175 24.0471C0.698819 24.0648 0.574448 24.1088 0.462696 24.1763C0.350944 24.2438 0.254168 24.3335 0.178311 24.4397C0.102454 24.546 0.0491148 24.6666 0.0215683 24.7943C-0.00597821 24.9219 -0.00715092 25.0538 0.018122 25.1819C0.043395 25.31 0.0945801 25.4316 0.168536 25.5392C0.242492 25.6468 0.337658 25.7381 0.448192 25.8076Z" fill="white"/>
<path d="M49.0702 34.1197C47.1539 31.8536 44.0111 32.8932 42.3151 33.4489C41.242 33.8035 38.6693 34.8862 36.135 35.9593C36.2879 35.1494 36.184 34.312 35.838 33.5639C34.4678 30.4355 31.0855 31.0344 28.6134 31.4751C27.8507 31.6408 27.0747 31.7386 26.2947 31.7674C24.9733 31.7525 23.6689 31.4672 22.462 30.929C20.8946 30.2546 19.1998 29.9277 17.494 29.9708C14.2279 30.0312 11.0079 30.7515 8.02735 32.0884L7.49078 32.3087C3.04012 34.0813 1.1238 34.4838 1.1238 34.4838C0.945506 34.5193 0.781012 34.6049 0.649523 34.7304C0.518035 34.856 0.424978 35.0163 0.381222 35.1928C0.347686 35.3317 -0.40447 38.5464 1.72744 43.0641C3.55753 46.8967 5.69902 48.3675 7.16979 48.8993C7.32242 48.954 7.48643 48.969 7.64647 48.9431C7.80651 48.9171 7.95734 48.8509 8.08484 48.7508C8.08484 48.7508 9.28733 47.7926 10.2072 47.256C10.8156 46.8871 12.296 46.6524 15.9178 47.6585C19.2688 48.5502 22.7132 49.0438 26.1797 49.1292C27.5296 49.1732 28.8773 48.9886 30.1657 48.5831C33.9456 47.1459 43.1439 42.355 46.761 40.3908C48.6773 39.3464 49.7217 38.2206 49.9613 36.9462C50.0392 36.4383 49.9994 35.9193 49.8449 35.4292C49.6904 34.9391 49.4253 34.491 49.0702 34.1197ZM48.0737 36.5965C47.9539 37.2433 47.1586 37.9954 45.8412 38.714C42.8038 40.3764 33.2509 45.3828 29.4902 46.7961C26.8504 47.783 20.2056 46.8632 16.4304 45.838C14.9221 45.3643 13.3581 45.0905 11.7785 45.0235C10.8826 44.9802 9.99215 45.1858 9.20588 45.6176C8.55913 46.0104 7.82134 46.547 7.35663 46.8919C5.91939 46.1733 4.55401 44.5444 3.45692 42.2353C2.50967 40.3662 2.06709 38.282 2.17298 36.1893C4.221 35.5914 6.23459 34.8813 8.20461 34.0622L8.75555 33.837C11.5163 32.5898 14.5033 31.9213 17.5323 31.8728C18.9959 31.8348 20.4494 32.1245 21.7865 32.7207C23.1979 33.3396 24.7201 33.6656 26.2612 33.6789C27.1647 33.6509 28.0641 33.5435 28.9488 33.3579C31.5885 32.8788 33.3707 32.7016 34.0797 34.3161C34.2008 34.5645 34.2696 34.8351 34.2819 35.1111C34.2943 35.3871 34.2499 35.6628 34.1516 35.921C33.8833 36.5821 33.1934 37.1858 32.1107 37.6744C31.1526 38.0769 30.4339 38.3883 30.1177 38.5128C28.0864 39.3081 26.3378 39.0302 24.6466 38.7619L23.7172 38.6182C23.4631 38.5839 23.2058 38.652 23.0018 38.8074C22.7979 38.9628 22.664 39.1929 22.6297 39.447C22.5954 39.7011 22.6635 39.9585 22.8189 40.1624C22.9743 40.3664 23.2044 40.5002 23.4585 40.5345C23.7508 40.5729 24.0478 40.6208 24.3448 40.6687C26.1989 40.9609 28.2972 41.2915 30.8172 40.3094C31.1094 40.1944 31.6939 39.9501 32.47 39.6147C32.6138 39.5572 32.7527 39.4997 32.8868 39.4374L34.1229 38.9105C37.2417 37.569 41.5151 35.7294 42.9188 35.2694C45.1465 34.5365 46.7083 34.3113 47.6042 35.3557C48.1839 36.036 48.1024 36.4576 48.0737 36.5965Z" fill="white"/>
<path d="M25.557 10.4147V11.6843C25.2248 11.7599 24.903 11.8758 24.5988 12.0292C24.1107 12.275 23.6984 12.6484 23.4057 13.1099C23.1129 13.5713 22.9508 14.1035 22.9364 14.6498C22.8693 16.7529 24.7617 17.4572 26.1415 17.9698C27.7512 18.5687 28.2398 18.8753 28.168 19.6418C28.1534 19.9026 28.0619 20.1533 27.9051 20.3622C27.7482 20.5711 27.5329 20.7289 27.2865 20.8155C26.8253 20.9915 26.3305 21.0613 25.8387 21.0199C25.3468 20.9784 24.8707 20.8267 24.4455 20.576C24.3464 20.498 24.2329 20.4403 24.1115 20.4061C23.9901 20.3719 23.8632 20.362 23.738 20.3769C23.6127 20.3918 23.4917 20.4313 23.3817 20.493C23.2717 20.5547 23.1749 20.6374 23.0969 20.7365C23.0189 20.8356 22.9612 20.9491 22.927 21.0705C22.8928 21.1919 22.8829 21.3188 22.8978 21.444C22.9127 21.5693 22.9522 21.6903 23.0139 21.8003C23.0756 21.9103 23.1583 22.0071 23.2574 22.0851C23.9321 22.5694 24.7284 22.8564 25.557 22.9139V24.0589C25.557 24.313 25.6579 24.5567 25.8376 24.7364C26.0173 24.9161 26.261 25.0171 26.5151 25.0171C26.7693 25.0171 27.013 24.9161 27.1927 24.7364C27.3724 24.5567 27.4733 24.313 27.4733 24.0589V22.7702C27.6737 22.7193 27.8706 22.6553 28.0626 22.5786C28.6252 22.3565 29.1142 21.9811 29.4741 21.495C29.834 21.0089 30.0504 20.4316 30.0987 19.8286C30.3286 17.4716 28.2255 16.6907 26.8361 16.1733C25.3462 15.6223 24.8527 15.3349 24.8719 14.7121C24.8768 14.5024 24.9405 14.2982 25.0557 14.1229C25.1709 13.9476 25.3329 13.8081 25.5234 13.7204C25.9654 13.5287 26.448 13.4497 26.928 13.4907C27.408 13.5317 27.8703 13.6913 28.2734 13.9551C28.38 14.0262 28.4998 14.0752 28.6258 14.0991C28.7517 14.1231 28.8811 14.1215 29.0064 14.0945C29.1317 14.0676 29.2503 14.0157 29.3552 13.9421C29.4601 13.8685 29.5492 13.7745 29.6172 13.6659C29.6851 13.5572 29.7306 13.436 29.7509 13.3094C29.7712 13.1829 29.7658 13.0535 29.7352 12.9291C29.7046 12.8046 29.6494 12.6876 29.5727 12.5848C29.4961 12.4821 29.3996 12.3958 29.289 12.331C28.7342 11.9847 28.1176 11.7488 27.4733 11.6364V10.4147C27.4733 10.1606 27.3724 9.91687 27.1927 9.73718C27.013 9.55749 26.7693 9.45654 26.5151 9.45654C26.261 9.45654 26.0173 9.55749 25.8376 9.73718C25.6579 9.91687 25.557 10.1606 25.557 10.4147Z" fill="white"/>
<path d="M15.0171 17.2369C15.0171 19.511 15.6914 21.734 16.9548 23.6249C18.2183 25.5157 20.014 26.9894 22.115 27.8597C24.2159 28.7299 26.5278 28.9576 28.7582 28.514C30.9885 28.0703 33.0373 26.9752 34.6453 25.3672C36.2533 23.7592 37.3484 21.7105 37.792 19.4801C38.2357 17.2497 38.008 14.9378 37.1377 12.8369C36.2675 10.7359 34.7938 8.94017 32.9029 7.67676C31.0121 6.41336 28.7891 5.73901 26.515 5.73901C23.4656 5.73901 20.541 6.9504 18.3848 9.10668C16.2285 11.263 15.0171 14.1875 15.0171 17.2369ZM36.0966 17.2369C36.0966 19.132 35.5347 20.9845 34.4818 22.5602C33.429 24.1359 31.9326 25.364 30.1817 26.0892C28.4309 26.8144 26.5044 27.0042 24.6457 26.6344C22.7871 26.2647 21.0798 25.3522 19.7398 24.0122C18.3998 22.6722 17.4872 20.9649 17.1175 19.1062C16.7478 17.2476 16.9376 15.321 17.6628 13.5702C18.388 11.8194 19.6161 10.323 21.1918 9.27013C22.7675 8.21729 24.62 7.65534 26.515 7.65534C29.0562 7.65534 31.4933 8.66482 33.2902 10.4617C35.0871 12.2586 36.0966 14.6957 36.0966 17.2369Z" fill="white"/>
</svg>
