<svg width="49" height="49" viewBox="0 0 49 49" fill="none" xmlns="http://www.w3.org/2000/svg">
<circle cx="24.4023" cy="24.8882" r="24" fill="#142254"/>
<path d="M21.6048 35.4184V26.932H18.3568C18.1881 26.932 18.0264 26.8651 17.9072 26.7458C17.7879 26.6266 17.7209 26.4648 17.7209 26.2962V22.9397C17.7209 22.7711 17.7879 22.6093 17.9072 22.4901C18.0264 22.3709 18.1881 22.3039 18.3568 22.3039H21.5919V19.0547C21.5146 18.2842 21.6068 17.5061 21.8622 16.775C22.1176 16.0439 22.53 15.3776 23.0703 14.8229C23.6107 14.2682 24.266 13.8385 24.9901 13.5641C25.7142 13.2896 26.4897 13.177 27.2619 13.2342H29.9686C30.1389 13.2339 30.3024 13.3005 30.424 13.4196C30.5455 13.5388 30.6154 13.701 30.6184 13.8712V16.7132C30.6148 16.8831 30.5447 17.0448 30.4232 17.1637C30.3018 17.2825 30.1386 17.3491 29.9686 17.349H28.2769C26.4499 17.349 26.0988 18.2147 26.0988 19.4875V22.3027H30.4423C30.5326 22.2997 30.6224 22.3164 30.7056 22.3517C30.7887 22.3869 30.8632 22.4399 30.9238 22.5068C30.9845 22.5738 31.0298 22.6531 31.0566 22.7394C31.0835 22.8256 31.0912 22.9167 31.0793 23.0062L30.6861 26.3755C30.6664 26.5299 30.5908 26.6716 30.4737 26.774C30.3565 26.8763 30.2059 26.9321 30.0503 26.9309H26.1256V35.4172C26.1275 35.5671 26.0994 35.7158 26.0428 35.8546C25.9863 35.9933 25.9026 36.1194 25.7966 36.2253C25.6906 36.3312 25.5644 36.4148 25.4255 36.4712C25.2867 36.5276 25.138 36.5556 24.9881 36.5535H22.7283C22.5796 36.5539 22.4323 36.5246 22.295 36.4674C22.1577 36.4103 22.0331 36.3264 21.9286 36.2206C21.824 36.1149 21.7415 35.9894 21.6859 35.8515C21.6304 35.7135 21.6028 35.5671 21.6048 35.4184Z" fill="white"/>
</svg>
