<svg width="50" height="50" viewBox="0 0 50 50" fill="none" xmlns="http://www.w3.org/2000/svg">
<path d="M44.5312 19.9219C44.5312 19.7147 44.4489 19.516 44.3024 19.3695C44.1559 19.2229 43.9572 19.1406 43.75 19.1406H32.0312V20.7031H43.75C43.9572 20.7031 44.1559 20.6208 44.3024 20.4743C44.4489 20.3278 44.5312 20.1291 44.5312 19.9219Z" fill="white"/>
<path d="M30.4687 42.3828V8.03301L21.5816 2.38336e-06H1.37253C1.00923 -0.000674803 0.660539 0.14298 0.403146 0.39937C0.145754 0.655761 0.000740026 1.00389 0 1.36719L0 42.3828C0.000740026 42.7461 0.145754 43.0942 0.403146 43.3506C0.660539 43.607 1.00923 43.7507 1.37253 43.75H29.0966C29.4598 43.7506 29.8084 43.6069 30.0658 43.3505C30.3231 43.0941 30.468 42.746 30.4687 42.3828ZM21.8746 2.37121L27.8953 7.8125H22.2904C22.1778 7.80986 22.0708 7.7627 21.9928 7.68134C21.9149 7.59997 21.8724 7.49104 21.8746 7.3784V2.37121ZM1.5625 42.1875V1.5625H20.3121V7.3784C20.3103 7.90533 20.5175 8.41147 20.8884 8.78578C21.2593 9.16009 21.7635 9.37199 22.2904 9.375H28.9066V42.1875H1.5625Z" fill="white"/>
<path d="M24.2183 13.2812H6.24951C6.04231 13.2812 5.8436 13.3636 5.69708 13.5101C5.55057 13.6566 5.46826 13.8553 5.46826 14.0625C5.46826 14.2697 5.55057 14.4684 5.69708 14.6149C5.8436 14.7614 6.04231 14.8437 6.24951 14.8437H24.2183C24.4255 14.8437 24.6242 14.7614 24.7707 14.6149C24.9172 14.4684 24.9995 14.2697 24.9995 14.0625C24.9995 13.8553 24.9172 13.6566 24.7707 13.5101C24.6242 13.3636 24.4255 13.2812 24.2183 13.2812Z" fill="white"/>
<path d="M24.2183 17.1875H6.24951C6.04231 17.1875 5.8436 17.2698 5.69708 17.4163C5.55057 17.5628 5.46826 17.7615 5.46826 17.9687C5.46826 18.176 5.55057 18.3747 5.69708 18.5212C5.8436 18.6677 6.04231 18.75 6.24951 18.75H24.2183C24.4255 18.75 24.6242 18.6677 24.7707 18.5212C24.9172 18.3747 24.9995 18.176 24.9995 17.9687C24.9995 17.7615 24.9172 17.5628 24.7707 17.4163C24.6242 17.2698 24.4255 17.1875 24.2183 17.1875Z" fill="white"/>
<path d="M24.2183 21.0938H6.24951C6.04231 21.0938 5.8436 21.1761 5.69708 21.3226C5.55057 21.4691 5.46826 21.6678 5.46826 21.875C5.46826 22.0822 5.55057 22.2809 5.69708 22.4274C5.8436 22.5739 6.04231 22.6562 6.24951 22.6562H24.2183C24.4255 22.6562 24.6242 22.5739 24.7707 22.4274C24.9172 22.2809 24.9995 22.0822 24.9995 21.875C24.9995 21.6678 24.9172 21.4691 24.7707 21.3226C24.6242 21.1761 24.4255 21.0938 24.2183 21.0938Z" fill="white"/>
<path d="M24.2183 25H6.24951C6.04231 25 5.8436 25.0823 5.69708 25.2288C5.55057 25.3753 5.46826 25.574 5.46826 25.7812C5.46826 25.9885 5.55057 26.1872 5.69708 26.3337C5.8436 26.4802 6.04231 26.5625 6.24951 26.5625H24.2183C24.4255 26.5625 24.6242 26.4802 24.7707 26.3337C24.9172 26.1872 24.9995 25.9885 24.9995 25.7812C24.9995 25.574 24.9172 25.3753 24.7707 25.2288C24.6242 25.0823 24.4255 25 24.2183 25Z" fill="white"/>
<path d="M24.2183 28.9062H6.24951C6.04231 28.9062 5.8436 28.9886 5.69708 29.1351C5.55057 29.2816 5.46826 29.4803 5.46826 29.6875C5.46826 29.8947 5.55057 30.0934 5.69708 30.2399C5.8436 30.3864 6.04231 30.4687 6.24951 30.4687H24.2183C24.4255 30.4687 24.6242 30.3864 24.7707 30.2399C24.9172 30.0934 24.9995 29.8947 24.9995 29.6875C24.9995 29.4803 24.9172 29.2816 24.7707 29.1351C24.6242 28.9886 24.4255 28.9062 24.2183 28.9062Z" fill="white"/>
<path d="M24.2183 32.8125H6.24951C6.04231 32.8125 5.8436 32.8948 5.69708 33.0413C5.55057 33.1878 5.46826 33.3865 5.46826 33.5937C5.46826 33.801 5.55057 33.9997 5.69708 34.1462C5.8436 34.2927 6.04231 34.375 6.24951 34.375H24.2183C24.4255 34.375 24.6242 34.2927 24.7707 34.1462C24.9172 33.9997 24.9995 33.801 24.9995 33.5937C24.9995 33.3865 24.9172 33.1878 24.7707 33.0413C24.6242 32.8948 24.4255 32.8125 24.2183 32.8125Z" fill="white"/>
<path d="M24.2183 36.7188H6.24951C6.04231 36.7188 5.8436 36.8011 5.69708 36.9476C5.55057 37.0941 5.46826 37.2928 5.46826 37.5C5.46826 37.7072 5.55057 37.9059 5.69708 38.0524C5.8436 38.1989 6.04231 38.2812 6.24951 38.2812H24.2183C24.4255 38.2812 24.6242 38.1989 24.7707 38.0524C24.9172 37.9059 24.9995 37.7072 24.9995 37.5C24.9995 37.2928 24.9172 37.0941 24.7707 36.9476C24.6242 36.8011 24.4255 36.7188 24.2183 36.7188Z" fill="white"/>
<path d="M44.1406 35.1563C42.9818 35.1563 41.8489 35.4999 40.8853 36.1437C39.9218 36.7876 39.1708 37.7027 38.7273 38.7733C38.2838 39.844 38.1678 41.0221 38.3938 42.1587C38.6199 43.2953 39.178 44.3394 39.9974 45.1588C40.8169 45.9783 41.8609 46.5363 42.9975 46.7624C44.1341 46.9885 45.3123 46.8725 46.3829 46.429C47.4536 45.9855 48.3687 45.2345 49.0125 44.2709C49.6564 43.3074 50 42.1745 50 41.0156C50.0001 40.2461 49.8485 39.4842 49.5541 38.7733C49.2597 38.0623 48.8281 37.4164 48.284 36.8723C47.7399 36.3282 47.0939 35.8966 46.383 35.6021C45.6721 35.3077 44.9101 35.1562 44.1406 35.1563ZM44.1406 45.3125C43.2908 45.3125 42.46 45.0605 41.7534 44.5883C41.0468 44.1162 40.4961 43.4451 40.1708 42.66C39.8456 41.8748 39.7605 41.0109 39.9263 40.1773C40.0921 39.3438 40.5013 38.5782 41.1023 37.9773C41.7032 37.3763 42.4688 36.9671 43.3023 36.8013C44.1359 36.6355 44.9998 36.7206 45.785 37.0458C46.5701 37.3711 47.2412 37.9218 47.7133 38.6284C48.1855 39.335 48.4375 40.1658 48.4375 41.0156C48.4363 42.1549 47.9833 43.2471 47.1777 44.0527C46.3721 44.8583 45.2799 45.3113 44.1406 45.3125Z" fill="white"/>
<path d="M32.0312 24.6094H43.75C43.9572 24.6094 44.1559 24.5271 44.3024 24.3806C44.4489 24.234 44.5312 24.0353 44.5312 23.8281C44.5312 23.6209 44.4489 23.4222 44.3024 23.2757C44.1559 23.1292 43.9572 23.0469 43.75 23.0469H32.0312V24.6094Z" fill="white"/>
<path d="M32.0312 32.4219H43.75C43.9572 32.4219 44.1559 32.3396 44.3024 32.1931C44.4489 32.0465 44.5312 31.8478 44.5312 31.6406C44.5312 31.4334 44.4489 31.2347 44.3024 31.0882C44.1559 30.9417 43.9572 30.8594 43.75 30.8594H32.0312V32.4219Z" fill="white"/>
<path d="M32.0312 28.5156H43.75C43.9572 28.5156 44.1559 28.4333 44.3024 28.2868C44.4489 28.1403 44.5312 27.9416 44.5312 27.7344C44.5312 27.5272 44.4489 27.3285 44.3024 27.1819C44.1559 27.0354 43.9572 26.9531 43.75 26.9531H32.0312V28.5156Z" fill="white"/>
<path d="M32.0312 40.2344H36.7607C36.8179 39.7026 36.9331 39.1787 37.104 38.6719H32.0312V40.2344Z" fill="white"/>
<path d="M32.0312 36.3281H38.3926C38.8936 35.7176 39.488 35.1903 40.1539 34.7656H32.0312V36.3281Z" fill="white"/>
<path d="M31.439 44.1406H37.4181C37.1833 43.6413 37.0053 43.1172 36.8875 42.5781H32.0215C31.984 43.1447 31.7815 43.6878 31.439 44.1406Z" fill="white"/>
<path d="M41.1126 6.25H30.8267L32.0313 7.33871V7.8125H39.8431V13.6284C39.8412 14.1553 40.0485 14.6615 40.4194 15.0358C40.7902 15.4101 41.2945 15.622 41.8214 15.625H48.4376V34.9754C49.0287 35.3973 49.555 35.9031 50.0001 36.4769V14.283L41.1126 6.25ZM41.4056 13.6284V8.62121L47.4263 14.0625H41.8214C41.7087 14.0599 41.6017 14.0127 41.5238 13.9313C41.4459 13.85 41.4034 13.741 41.4056 13.6284Z" fill="white"/>
<path d="M48.4376 47.0558V48.4375H21.0942V45.3125H19.5317V48.6328C19.5325 48.9961 19.6775 49.3442 19.9349 49.6006C20.1923 49.857 20.5409 50.0007 20.9042 50H48.6275C48.9908 50.0007 49.3395 49.857 49.5969 49.6006C49.8543 49.3442 49.9993 48.9961 50.0001 48.6328V45.5543C49.555 46.1281 49.0286 46.6339 48.4376 47.0558Z" fill="white"/>
<path d="M41 40.5L42.5 42.5L46.5 39" stroke="white" stroke-linecap="round"/>
</svg>
