<svg width="49" height="49" viewBox="0 0 49 49" fill="none" xmlns="http://www.w3.org/2000/svg">
<circle cx="24.4023" cy="24.8882" r="24" fill="#142254"/>
<path d="M25.6018 13.2217C26.9143 13.2252 27.5804 13.2322 28.1556 13.2485L28.3819 13.2567C28.6433 13.266 28.9011 13.2777 29.2126 13.2917C30.4539 13.35 31.3009 13.546 32.0441 13.8342C32.8141 14.1305 33.4628 14.5318 34.1114 15.1793C34.7047 15.7626 35.1637 16.468 35.4566 17.2467C35.7448 17.9898 35.9408 18.8368 35.9991 20.0793C36.0131 20.3897 36.0248 20.6475 36.0341 20.91L36.0411 21.1363C36.0586 21.7103 36.0656 22.3765 36.0679 23.689L36.0691 24.5593V26.0877C36.072 26.9387 36.063 27.7896 36.0423 28.6403L36.0353 28.8667C36.0259 29.1292 36.0143 29.387 36.0003 29.6973C35.9419 30.9398 35.7436 31.7857 35.4566 32.53C35.1646 33.3091 34.7054 34.0147 34.1114 34.5973C33.5281 35.1904 32.8226 35.6494 32.0441 35.9425C31.3009 36.2307 30.4539 36.4267 29.2126 36.485C28.9358 36.498 28.6589 36.5097 28.3819 36.52L28.1556 36.527C27.5804 36.5433 26.9143 36.5515 25.6018 36.5538L24.7314 36.555H23.2043C22.3529 36.5579 21.5016 36.549 20.6504 36.5282L20.4241 36.5212C20.1472 36.5107 19.8703 36.4986 19.5934 36.485C18.3521 36.4267 17.5051 36.2307 16.7608 35.9425C15.9822 35.6501 15.277 35.191 14.6946 34.5973C14.1008 34.0143 13.6414 33.3088 13.3483 32.53C13.0601 31.7868 12.8641 30.9398 12.8058 29.6973C12.7928 29.4205 12.7811 29.1436 12.7708 28.8667L12.7649 28.6403C12.7434 27.7896 12.7337 26.9387 12.7358 26.0877V23.689C12.7325 22.838 12.7411 21.9871 12.7614 21.1363L12.7696 20.91C12.7789 20.6475 12.7906 20.3897 12.8046 20.0793C12.8629 18.8368 13.0589 17.991 13.3471 17.2467C13.6401 16.4672 14.1005 15.7615 14.6958 15.1793C15.2781 14.5861 15.9828 14.127 16.7608 13.8342C17.5051 13.546 18.3509 13.35 19.5934 13.2917C19.9038 13.2777 20.1628 13.266 20.4241 13.2567L20.6504 13.2497C21.5012 13.229 22.3521 13.22 23.2031 13.2228L25.6018 13.2217ZM24.4024 19.055C22.8554 19.055 21.3716 19.6696 20.2777 20.7636C19.1837 21.8575 18.5691 23.3412 18.5691 24.8883C18.5691 26.4354 19.1837 27.9192 20.2777 29.0131C21.3716 30.1071 22.8554 30.7217 24.4024 30.7217C25.9495 30.7217 27.4333 30.1071 28.5272 29.0131C29.6212 27.9192 30.2358 26.4354 30.2358 24.8883C30.2358 23.3412 29.6212 21.8575 28.5272 20.7636C27.4333 19.6696 25.9495 19.055 24.4024 19.055ZM24.4024 21.3883C24.8621 21.3883 25.3172 21.4787 25.7419 21.6545C26.1666 21.8304 26.5524 22.0881 26.8775 22.4131C27.2025 22.738 27.4604 23.1238 27.6364 23.5484C27.8123 23.973 27.903 24.4281 27.903 24.8878C27.9031 25.3474 27.8127 25.8025 27.6368 26.2272C27.461 26.6519 27.2033 27.0377 26.8783 27.3628C26.5534 27.6879 26.1676 27.9457 25.743 28.1217C25.3184 28.2977 24.8632 28.3883 24.4036 28.3883C23.4754 28.3883 22.5851 28.0196 21.9287 27.3632C21.2724 26.7068 20.9036 25.8166 20.9036 24.8883C20.9036 23.9601 21.2724 23.0698 21.9287 22.4135C22.5851 21.7571 23.4754 21.3883 24.4036 21.3883M30.5286 17.305C30.1418 17.305 29.7709 17.4587 29.4974 17.7321C29.2239 18.0056 29.0703 18.3766 29.0703 18.7633C29.0703 19.1501 29.2239 19.5211 29.4974 19.7945C29.7709 20.068 30.1418 20.2217 30.5286 20.2217C30.9154 20.2217 31.2863 20.068 31.5598 19.7945C31.8333 19.5211 31.9869 19.1501 31.9869 18.7633C31.9869 18.3766 31.8333 18.0056 31.5598 17.7321C31.2863 17.4587 30.9154 17.305 30.5286 17.305Z" fill="white"/>
</svg>
