<svg width="49" height="49" viewBox="0 0 49 49" fill="none" xmlns="http://www.w3.org/2000/svg">
<circle cx="24.4023" cy="24.8882" r="24" fill="#142254"/>
<path d="M34.8526 30.2387C34.6079 29.9781 33.744 29.2074 32.1559 28.1879C30.5561 27.1595 29.3762 26.5182 29.0378 26.3687C29.008 26.3555 28.9751 26.3506 28.9427 26.3546C28.9103 26.3587 28.8797 26.3715 28.854 26.3917C28.3089 26.8168 27.3911 27.5977 27.3418 27.6399C27.024 27.9123 27.024 27.9123 26.7639 27.8274C26.3064 27.6774 24.8851 26.9227 23.6467 25.6815C22.4082 24.4402 21.6147 22.9838 21.4647 22.5268C21.3789 22.2662 21.3789 22.2662 21.6522 21.9484C21.6943 21.8992 22.4757 20.9813 22.9009 20.4367C22.9211 20.411 22.9339 20.3803 22.9379 20.348C22.942 20.3156 22.9371 20.2827 22.9239 20.2529C22.7743 19.914 22.1331 18.7346 21.1047 17.1348C20.0837 15.5471 19.314 14.6832 19.0534 14.4385C19.0295 14.416 18.9999 14.4003 18.9678 14.3931C18.9357 14.3859 18.9023 14.3875 18.8711 14.3977C17.96 14.7108 17.081 15.1103 16.2461 15.5907C15.44 16.0593 14.6769 16.5981 13.9656 17.2009C13.9408 17.222 13.9221 17.2494 13.9117 17.2803C13.9013 17.3112 13.8995 17.3444 13.9065 17.3762C14.0045 17.8327 14.4728 19.7387 15.9259 22.3787C17.4086 25.0731 18.4361 26.4535 20.6134 28.6234C22.7907 30.7932 24.2148 31.8826 26.912 33.3652C29.552 34.8184 31.4589 35.2871 31.9145 35.3841C31.9464 35.3911 31.9796 35.3892 32.0105 35.3788C32.0415 35.3685 32.069 35.3499 32.0903 35.3251C32.6929 34.6138 33.2316 33.8507 33.7 33.0446C34.1803 32.2096 34.5798 31.3306 34.8929 30.4196C34.903 30.3886 34.9045 30.3555 34.8974 30.3237C34.8903 30.2918 34.8749 30.2625 34.8526 30.2387Z" fill="white"/>
</svg>
