<svg width="24" height="24" viewBox="0 0 24 24" fill="none" xmlns="http://www.w3.org/2000/svg">
<circle cx="12" cy="12" r="12" fill="white"/>
<g clip-path="url(#clip0_88_1594)">
<path d="M17.2251 14.6751C17.1028 14.5448 16.6708 14.1595 15.8768 13.6497C15.0769 13.1355 14.4869 12.8149 14.3177 12.7401C14.3028 12.7335 14.2864 12.7311 14.2702 12.7331C14.254 12.7351 14.2387 12.7415 14.2258 12.7516C13.9533 12.9642 13.4944 13.3547 13.4697 13.3758C13.3108 13.5119 13.3108 13.5119 13.1808 13.4695C12.952 13.3945 12.2414 13.0172 11.6222 12.3965C11.003 11.7759 10.6062 11.0477 10.5312 10.8192C10.4883 10.6889 10.4883 10.6889 10.6249 10.53C10.646 10.5054 11.0367 10.0465 11.2493 9.77411C11.2594 9.76129 11.2658 9.74596 11.2678 9.72977C11.2698 9.71358 11.2674 9.69715 11.2608 9.68224C11.186 9.51278 10.8654 8.9231 10.3512 8.12317C9.84069 7.32935 9.45584 6.89739 9.32553 6.77505C9.31357 6.76376 9.29879 6.75591 9.28275 6.75233C9.2667 6.74874 9.24998 6.74954 9.23436 6.75466C8.77884 6.91119 8.33934 7.11093 7.92186 7.35114C7.51883 7.58543 7.13727 7.85483 6.78162 8.15622C6.76921 8.16678 6.7599 8.18051 6.7547 8.19595C6.7495 8.21139 6.74859 8.22796 6.75209 8.24388C6.80108 8.47216 7.03522 9.42513 7.76178 10.7451C8.50311 12.0923 9.01686 12.7825 10.1055 13.8675C11.1942 14.9524 11.9062 15.4971 13.2548 16.2384C14.5748 16.965 15.5283 17.1993 15.7561 17.2479C15.772 17.2513 15.7886 17.2504 15.8041 17.2452C15.8196 17.24 15.8333 17.2307 15.844 17.2183C16.1453 16.8627 16.4146 16.4811 16.6488 16.0781C16.889 15.6606 17.0887 15.2211 17.2453 14.7656C17.2503 14.7501 17.2511 14.7335 17.2475 14.7176C17.244 14.7017 17.2363 14.687 17.2251 14.6751Z" fill="#142254"/>
</g>
<defs>
<clipPath id="clip0_88_1594">
<rect width="12" height="12" fill="white" transform="translate(6 6)"/>
</clipPath>
</defs>
</svg>
