<svg width="564" height="259" viewBox="0 0 564 259" fill="none" xmlns="http://www.w3.org/2000/svg">
<rect width="563.88" height="258.661" rx="8" fill="#F3F3F3"/>
<g clip-path="url(#clip0_3_5081)">
<path d="M23.2793 87.0513H540.6V173.264H23.2793V87.0513Z" fill="#004C8F"/>
<path d="M109.504 87.0513H540.601V173.264H109.504V87.0513Z" fill="#004C8F"/>
<path d="M136.918 150.553V109.761H150.338V123.529H162.914V109.761H176.354V150.553H162.914V134.726H150.338V150.553H136.918ZM197.591 119.897H201.07C203.574 119.897 205.407 120.156 206.578 120.677C207.444 121.055 208.149 121.621 208.767 122.466C209.331 123.3 209.786 124.352 210.121 125.675C210.426 126.986 210.588 128.374 210.588 129.837C210.588 132.222 210.264 134.216 209.558 135.832C208.875 137.447 207.889 138.607 206.621 139.322C205.353 140.05 203.466 140.396 200.973 140.396L197.591 140.417V119.897ZM202.773 150.553C205.938 150.553 208.561 150.294 210.707 149.719C212.865 149.166 214.62 148.429 215.964 147.55C217.332 146.649 218.566 145.437 219.704 143.929C220.832 142.369 221.819 140.407 222.587 138.001C223.38 135.605 223.758 132.905 223.758 129.849C223.758 125.361 222.902 121.567 221.169 118.402C219.412 115.301 217.027 113.056 213.98 111.736C210.947 110.411 207.325 109.761 203.119 109.761H184.463V150.553H202.773ZM229.907 150.553V109.761H261.732V119.821H243.152V126.358H258.016V136.146H243.152V150.553H229.907ZM306.676 125.361H294.005C293.765 123.333 293.028 121.729 291.803 120.58C290.567 119.452 289.018 118.899 287.11 118.899C284.736 118.899 282.806 119.821 281.322 121.643C279.826 123.486 279.077 126.466 279.077 130.564C279.077 133.425 279.414 135.573 280.032 137.036C280.671 138.542 281.57 139.627 282.687 140.353C283.837 141.079 285.235 141.416 286.957 141.416C289.018 141.416 290.665 140.893 291.868 139.702C293.104 138.585 293.819 136.917 294.059 134.683H306.959C306.676 137.22 306.166 139.344 305.429 141.079C304.726 142.803 303.467 144.516 301.766 146.238C300.02 147.998 297.922 149.369 295.608 150.262C293.234 151.204 290.492 151.649 287.348 151.649C284.249 151.649 281.354 151.204 278.742 150.294C276.097 149.361 273.863 148.038 272.085 146.379C270.274 144.657 268.865 142.727 267.858 140.547C266.404 137.481 265.721 134.108 265.721 130.346C265.721 127.203 266.231 124.221 267.262 121.491C268.29 118.78 269.712 116.472 271.521 114.607C273.342 112.752 275.326 111.365 277.538 110.433C280.334 109.24 283.413 108.667 286.827 108.667C289.798 108.667 292.551 109.1 295.153 109.977C297.743 110.856 299.869 112.136 301.527 113.838C303.195 115.518 304.511 117.515 305.397 119.711C306.047 121.263 306.46 123.138 306.676 125.361ZM349.659 118.944C351.556 118.944 352.781 119.03 353.388 119.203C354.135 119.416 354.797 119.855 355.283 120.461C355.761 121.068 356.011 121.772 356.011 122.587C356.011 123.626 355.599 124.482 354.808 125.132C353.961 125.817 352.52 126.131 350.448 126.131H345.398V118.942L349.659 118.944ZM353.028 150.553C356.206 150.553 358.438 150.402 359.75 150.121C361.121 149.786 362.454 149.314 363.729 148.71C365.052 148.017 366.072 147.366 366.742 146.651C367.783 145.685 368.552 144.516 369.116 143.105C369.68 141.686 369.963 140.082 369.963 138.358C369.963 135.897 369.354 133.87 368.12 132.222C366.884 130.564 365.225 129.469 363.133 128.873C366.677 126.639 368.444 123.756 368.444 120.243C368.444 116.613 366.884 113.838 363.794 111.952C361.409 110.498 357.69 109.761 352.649 109.761H332.412V150.553H353.028ZM350.873 133.469C353.529 133.469 355.251 133.793 356.119 134.477C356.921 135.139 357.355 136.049 357.355 137.274C357.355 138.51 356.921 139.486 356.044 140.169C355.208 140.895 353.464 141.198 350.873 141.198H345.398V133.469H350.873ZM399.438 136.841H390.905L395.112 121.999L399.438 136.841ZM386.895 150.553L388.444 145.199H401.799L403.362 150.553H416.706L402.072 109.761H388.444L373.799 150.553H386.895ZM422.342 150.553V109.761H434.841L448.944 131.604V109.761H461.801V150.553H449.031L435.23 129.253V150.553H422.342ZM470.744 150.553V109.761H483.743V123.214L495.873 109.761H511.634L496.685 125.122L513.185 150.553H497.12L487.308 134.303L483.741 137.827V150.553H470.744Z" fill="white"/>
<path d="M23.2793 87.0513H109.492V173.264H23.2793V87.0513Z" fill="#ED232A"/>
<path d="M38.3672 102.14H94.412V158.184H38.3672V102.14Z" fill="white"/>
<path d="M62.0762 87.0513H70.6951V173.264H62.0762V87.0513Z" fill="white"/>
<path d="M23.2793 125.858H109.492V134.477H23.2793V125.858Z" fill="white"/>
<path d="M53.459 117.229H79.3231V143.094H53.459V117.229Z" fill="#004C8F"/>
</g>
<defs>
<clipPath id="clip0_3_5081">
<rect width="517.321" height="89.6" fill="white" transform="translate(23.2793 85.3579)"/>
</clipPath>
</defs>
</svg>
