<svg width="16" height="16" viewBox="0 0 16 16" fill="none" xmlns="http://www.w3.org/2000/svg">
<g clip-path="url(#clip0_710_1833)">
<path d="M0.292542 0.292105C0.48007 0.104634 0.734378 -0.000681838 0.999542 -0.000681838C1.26471 -0.000681838 1.51901 0.104634 1.70654 0.292105L7.99954 6.5851L14.2925 0.292105C14.3848 0.196594 14.4951 0.120412 14.6171 0.0680032C14.7391 0.0155942 14.8704 -0.011992 15.0031 -0.0131458C15.1359 -0.0142997 15.2676 0.0110021 15.3905 0.0612829C15.5134 0.111564 15.625 0.185817 15.7189 0.27971C15.8128 0.373602 15.8871 0.485254 15.9374 0.608151C15.9876 0.731047 16.0129 0.862727 16.0118 0.995506C16.0106 1.12829 15.9831 1.25951 15.9306 1.38151C15.8782 1.50351 15.8021 1.61386 15.7065 1.7061L9.41354 7.9991L15.7065 14.2921C15.8887 14.4807 15.9895 14.7333 15.9872 14.9955C15.9849 15.2577 15.8798 15.5085 15.6944 15.6939C15.509 15.8793 15.2581 15.9845 14.9959 15.9868C14.7337 15.9891 14.4811 15.8883 14.2925 15.7061L7.99954 9.4131L1.70654 15.7061C1.51794 15.8883 1.26534 15.9891 1.00314 15.9868C0.740944 15.9845 0.490132 15.8793 0.304724 15.6939C0.119316 15.5085 0.0141467 15.2577 0.0118683 14.9955C0.00958985 14.7333 0.110384 14.4807 0.292542 14.2921L6.58554 7.9991L0.292542 1.7061C0.105071 1.51858 -0.000244141 1.26427 -0.000244141 0.999105C-0.000244141 0.73394 0.105071 0.479632 0.292542 0.292105Z" fill="black"/>
</g>
<defs>
<clipPath id="clip0_710_1833">
<rect width="16" height="16" fill="white"/>
</clipPath>
</defs>
</svg>
