<svg width="120" height="120" viewBox="0 0 120 120" fill="none" xmlns="http://www.w3.org/2000/svg">
<circle cx="60" cy="60" r="60" fill="#142254"/>
<path d="M46.5012 46.4954C50.4785 42.6136 55.7285 40.4818 61.2807 40.4818C66.833 40.4818 71.725 42.4784 75.6387 46.0977C79.5364 49.7011 81.9307 54.5852 82.3682 59.8511C82.4398 60.742 83.1875 61.4181 84.0705 61.4181C84.1182 61.4181 84.1659 61.4181 84.2136 61.4181C85.1523 61.3386 85.8523 60.5113 85.7727 59.5727C85.2557 53.4556 82.4795 47.7841 77.9534 43.6C73.8171 39.7818 68.5591 37.5227 62.983 37.1329V34.4204H65.3773C66.3239 34.4204 67.0875 33.6568 67.0875 32.7102C67.0875 31.7636 66.3239 31 65.3773 31H57.1841C56.2376 31 55.4739 31.7636 55.4739 32.7102C55.4739 33.6568 56.2376 34.4204 57.1841 34.4204H59.5785V37.1329C53.7637 37.5307 48.3308 39.9568 44.1149 44.0613C43.4387 44.7216 43.4228 45.8034 44.083 46.4795C44.7433 47.1556 45.8251 47.1716 46.5012 46.5113V46.4954Z" fill="white"/>
<path d="M66.5147 82.1635C64.8125 82.5931 63.0545 82.8158 61.2806 82.8158C55.7443 82.8158 50.5023 80.692 46.533 76.834C45.8568 76.1738 44.775 76.1897 44.1148 76.8658C43.4546 77.542 43.4705 78.6238 44.1466 79.284C48.7602 83.7624 54.8454 86.2283 61.2727 86.2283C63.325 86.2283 65.3693 85.9738 67.342 85.4726C68.2568 85.242 68.8056 84.3113 68.5749 83.3965C68.3443 82.4817 67.4136 81.9329 66.4988 82.1635H66.5147Z" fill="white"/>
<path d="M71.6372 51.284C71.0088 50.6556 70.0065 50.6158 69.3304 51.1885L62.6247 56.8601C62.1951 56.7408 61.7497 56.6772 61.2883 56.6772C58.552 56.6772 56.3247 58.9044 56.3247 61.6408C56.3247 64.3772 58.552 66.6044 61.2883 66.6044C64.0247 66.6044 66.252 64.3772 66.252 61.6408C66.252 61.1953 66.1963 60.7658 66.0849 60.3522L71.7485 53.5829C72.3213 52.9067 72.2735 51.9045 71.6451 51.276L71.6372 51.284Z" fill="white"/>
<path d="M43.1045 61.6487C43.1045 60.7021 42.3409 59.9385 41.3943 59.9385H26.7102C25.7636 59.9385 25 60.7021 25 61.6487C25 62.5953 25.7636 63.3589 26.7102 63.3589H41.4022C42.3488 63.3589 43.1125 62.5953 43.1125 61.6487H43.1045Z" fill="white"/>
<path d="M31.1731 53.2964H43.956C44.9026 53.2964 45.6663 52.5328 45.6663 51.5862C45.6663 50.6396 44.9026 49.876 43.956 49.876H31.1731C30.2265 49.876 29.4629 50.6396 29.4629 51.5862C29.4629 52.5328 30.2265 53.2964 31.1731 53.2964Z" fill="white"/>
<path d="M45.6583 71.7112C45.6583 70.7646 44.8947 70.001 43.9481 70.001H31.1731C30.2265 70.001 29.4629 70.7646 29.4629 71.7112C29.4629 72.6578 30.2265 73.4214 31.1731 73.4214H43.956C44.9026 73.4214 45.6663 72.6578 45.6663 71.7112H45.6583Z" fill="white"/>
<path d="M91.2373 67.4317C88.8111 65.0055 85.5896 63.6692 82.1532 63.6692C78.7168 63.6692 75.4953 65.0055 73.0691 67.4317C70.643 69.8578 69.3066 73.0794 69.3066 76.5158C69.3066 79.9521 70.643 83.1737 73.0691 85.5998C75.4953 88.026 78.7168 89.3623 82.1532 89.3623C85.5896 89.3623 88.8111 88.026 91.2373 85.5998C93.6634 83.1737 94.9998 79.9521 94.9998 76.5158C94.9998 73.0794 93.6634 69.8578 91.2373 67.4317ZM82.1532 85.9419C76.9509 85.9419 72.7271 81.7101 72.7271 76.5158C72.7271 71.3214 76.9589 67.0896 82.1532 67.0896C87.3475 67.0896 91.5793 71.3214 91.5793 76.5158C91.5793 81.7101 87.3475 85.9419 82.1532 85.9419Z" fill="white"/>
<path d="M85.2322 72.276L80.2288 77.2794L78.9481 75.9988C78.2799 75.3306 77.1981 75.3306 76.5299 75.9988C75.8618 76.6669 75.8618 77.7488 76.5299 78.4169L79.0118 80.8987C79.3458 81.2328 79.7833 81.3999 80.2208 81.3999C80.6583 81.3999 81.0958 81.2328 81.4299 80.8987L87.6345 74.6942C88.3026 74.026 88.3026 72.9442 87.6345 72.276C86.9663 71.6079 85.8845 71.6079 85.2163 72.276H85.2322Z" fill="white"/>
</svg>
