<svg width="185" height="80" viewBox="0 0 185 80" fill="none" xmlns="http://www.w3.org/2000/svg">
<rect x="0.595361" y="0.1" width="183.8" height="79.8" rx="7.9" stroke="#363636" stroke-width="0.2"/>
<g clip-path="url(#clip0_59_478)">
<path fill-rule="evenodd" clip-rule="evenodd" d="M39.4474 60C26.8842 60 16.4954 50.9756 16.4954 40C16.4954 29.0244 26.8842 20 39.4474 20C52.2522 20 62.3994 29.0244 62.3994 40C62.641 50.9756 52.2522 60 39.4474 60Z" fill="#004A8F"/>
<path fill-rule="evenodd" clip-rule="evenodd" d="M54.4266 41.9512H57.0842C55.6346 52.6829 45.4874 53.4146 40.4138 43.1707L41.1386 41.9512C45.9706 45.6098 52.2522 46.8293 54.4266 41.9512Z" fill="white"/>
<path fill-rule="evenodd" clip-rule="evenodd" d="M36.7898 26.3415L42.105 24.6342L42.3466 53.9024L36.5482 55.8537L36.7898 26.3415Z" fill="#ED1C24"/>
<path fill-rule="evenodd" clip-rule="evenodd" d="M54.4266 38.0488H56.8426C55.8762 33.1707 53.4602 30 48.6282 29.5122C44.7626 29.5122 41.1386 31.9512 38.481 36.5854C36.5482 39.5122 33.649 43.9025 30.025 44.3903C25.6762 45.122 23.2602 41.2195 24.9514 37.8049C26.1594 35.8537 29.3002 35.122 31.4746 35.122C33.4074 35.3659 35.3402 35.8537 36.7898 36.8293V32.6829C35.8234 31.9512 35.0986 30.9756 33.8906 30.4878C32.441 29.7561 30.7498 29.5122 29.3002 29.7561C22.777 31.2195 21.569 36.5854 23.0186 43.6585C25.4346 51.9512 33.4074 52.6829 37.9978 47.3171C40.897 43.6585 48.6282 30.9756 54.4266 38.0488Z" fill="white"/>
<path fill-rule="evenodd" clip-rule="evenodd" d="M89.217 45.122C93.3242 45.122 96.465 42.6829 96.465 38.7805C96.465 34.6342 93.3242 32.1951 89.217 32.1951C85.1098 32.1951 81.969 34.8781 81.969 38.7805C81.969 42.9268 85.1098 45.122 89.217 45.122ZM89.217 42.1951C87.2842 42.1951 86.5594 40.4878 86.5594 38.7805C86.5594 36.8293 87.5258 35.122 89.217 35.122C91.1498 35.122 91.8746 36.8293 91.8746 38.7805C91.8746 40.4878 91.1498 42.1951 89.217 42.1951ZM95.9818 35.6098H98.3978V40.4878C98.3978 43.4146 99.3642 45.122 103.23 45.122C104.196 45.122 104.921 44.8781 105.887 44.8781L105.646 42.1951C105.163 42.1951 104.679 42.439 104.438 42.439C103.23 42.439 102.747 41.4634 102.747 40V35.6098H105.646V32.439H102.747V28.2927L98.6394 29.7561V32.439H95.9818V35.6098ZM120.383 44.8781H124.732V38.7805H124.974L128.356 45.122H133.43L128.839 38.2927L133.188 32.6829H128.598L125.215 37.8049H124.974V28.2927L120.383 29.7561V44.8781ZM70.6138 44.8781H74.9626V38.7805L78.345 45.122H83.4186L79.0698 38.2927L83.4186 32.6829H78.8282L75.2042 37.8049V28.2927L70.8554 29.5122V44.8781H70.6138ZM118.934 44.8781C118.692 43.9024 118.692 42.9268 118.692 41.9512V37.3171C118.692 33.4146 116.035 32.1951 112.652 32.1951C110.961 32.1951 109.27 32.439 107.82 33.1707V36.0976C109.028 35.3659 110.478 35.122 111.927 35.122C113.377 35.122 114.585 35.6098 114.585 37.3171C114.343 37.0732 113.377 37.0732 112.894 37.0732C110.478 37.0732 106.371 37.561 106.371 41.4634C106.371 44.1464 108.787 45.3659 110.961 45.3659C112.894 45.3659 113.86 44.6342 115.068 43.1707C115.068 43.9025 115.31 44.3903 115.31 45.122H118.934V44.8781ZM110.236 40.9756C110.236 40 111.444 39.5122 112.894 39.5122C113.619 39.5122 114.102 39.5122 114.585 39.5122C114.585 40.9756 113.619 42.439 111.927 42.439C111.203 42.439 110.236 41.7073 110.236 40.9756Z" fill="#ED1C24"/>
<path fill-rule="evenodd" clip-rule="evenodd" d="M134.879 28.7805C135.121 28.7805 135.604 28.7805 135.846 29.0244C136.087 29.2683 136.329 29.5122 136.571 29.7561C136.812 30 136.812 30.4878 136.812 30.7317C136.812 30.9756 136.812 31.4634 136.571 31.7073C136.329 31.9512 136.087 32.1951 135.846 32.439C135.604 32.6829 135.121 32.6829 134.879 32.6829C134.638 32.6829 134.155 32.6829 133.913 32.439C133.671 32.1951 133.43 31.9512 133.188 31.7073C132.947 31.4634 132.947 30.9756 132.947 30.7317C132.947 30.4878 132.947 30 133.188 29.7561C133.43 29.5122 133.671 29.2683 133.913 29.0244C134.155 29.0244 134.638 28.7805 134.879 28.7805ZM134.879 29.2683C134.638 29.2683 134.396 29.2683 134.155 29.5122C133.913 29.7561 133.671 29.7561 133.43 30.2439C133.188 30.7317 133.188 30.7317 133.188 30.9756C133.188 31.2195 133.188 31.4634 133.43 31.7073C133.671 31.9512 133.671 32.1951 134.155 32.439C134.396 32.6829 134.638 32.6829 134.879 32.6829C135.121 32.6829 135.363 32.6829 135.604 32.439C135.846 32.1951 136.087 32.1951 136.329 31.7073C136.571 31.4634 136.571 31.2195 136.571 30.9756C136.571 30.7317 136.571 30.4878 136.329 30.2439C136.087 30 136.087 29.7561 135.604 29.5122C135.363 29.2683 135.121 29.2683 134.879 29.2683ZM133.913 31.9512V29.7561H134.638C134.879 29.7561 135.121 29.7561 135.121 29.7561C135.121 29.7561 135.363 29.7561 135.363 30V30.2439C135.363 30.4878 135.363 30.4878 135.121 30.7317C135.121 30.7317 134.879 30.9756 134.638 30.9756H134.879C134.879 30.9756 135.121 31.2195 135.121 31.4634L135.363 31.9512H134.879L134.638 31.7073C135.121 31.4634 134.879 31.2195 134.879 31.2195H134.638H134.396V32.1951H133.913V31.9512ZM134.396 30.7317H134.879C135.121 30.7317 135.121 30.7317 135.363 30.7317V30.4878C135.363 30.4878 135.363 30.4878 135.363 30.2439C135.363 30.2439 135.363 30.2439 135.121 30.2439H134.879H134.396V30.7317Z" fill="#004A8F"/>
<path d="M76.1706 56.5854H74.9626L72.0634 53.1707L71.8218 52.9268V56.5854H71.097V49.2683H71.8218V52.6829C71.8218 52.6829 71.8218 52.439 72.0634 52.439L74.9626 49.2683H75.929L72.7882 52.9268L76.1706 56.5854ZM76.4122 54.1463C76.4122 53.1707 76.6538 52.6829 77.137 51.9512C77.6202 51.4634 78.345 51.2195 79.0698 51.2195C79.7946 51.2195 80.5194 51.4634 81.0026 51.9512C81.4858 52.439 81.7274 53.1707 81.7274 53.9024C81.7274 54.6341 81.4858 55.3659 81.0026 55.8537C80.5194 56.3415 79.7946 56.5854 79.0698 56.5854C78.345 56.5854 77.6202 56.3415 77.137 55.8537C76.6538 55.6098 76.4122 54.878 76.4122 54.1463ZM77.137 53.9024C77.137 54.6341 77.3786 55.122 77.6202 55.3659C77.8618 55.8537 78.345 55.8537 78.8282 55.8537C79.3114 55.8537 79.7946 55.6098 80.0362 55.3659C80.2778 55.122 80.5194 54.3902 80.5194 53.9024C80.5194 53.1707 80.2778 52.6829 80.0362 52.439C79.7946 51.9512 79.3114 51.9512 78.8282 51.9512C78.345 51.9512 77.8618 52.1951 77.6202 52.439C77.3786 52.9268 77.137 53.4146 77.137 53.9024ZM85.3514 56.5854C85.1098 56.5854 84.8682 56.8293 84.6266 56.8293C83.6602 56.8293 83.177 56.3415 83.177 55.3659V52.1951H82.2106V51.4634H83.177V50.2439L83.9018 50V51.4634H85.3514V52.1951H83.9018V55.1219C83.9018 55.3659 83.9018 55.8537 84.1434 55.8537C84.1434 56.0976 84.385 56.0976 84.6266 56.0976C84.8682 56.0976 85.1098 56.0976 85.1098 55.8537V56.5854H85.3514ZM86.5594 51.7073C87.0426 51.4634 87.7674 51.2195 88.2506 51.2195C89.4586 51.2195 90.1834 51.9512 90.1834 53.1707V56.5854H89.4586V55.8537C88.9754 56.5854 88.4922 56.8293 87.7674 56.8293C87.2842 56.8293 86.801 56.5854 86.5594 56.3415C86.3178 56.0976 86.0762 55.6098 86.0762 55.1219C86.0762 54.1463 86.5594 53.6585 87.7674 53.4146L89.4586 53.1707C89.4586 52.1951 88.9754 51.7073 88.2506 51.7073C87.5258 51.7073 87.0426 51.9512 86.5594 52.439V51.7073ZM88.009 54.1463C87.5258 54.1463 87.2842 54.3902 87.0426 54.3902C86.801 54.6341 86.801 54.878 86.801 55.1219C86.801 55.3659 86.801 55.6098 87.0426 55.8537C87.2842 56.0976 87.5258 56.0976 87.7674 56.0976C88.2506 56.0976 88.4922 55.8537 88.7338 55.6098C88.9754 55.3659 89.217 54.878 89.217 54.3902V53.9024L88.009 54.1463ZM95.9818 56.5854H94.7738L92.3578 54.1463V56.5854H91.633V48.7805H92.3578V53.6585L94.5322 51.2195H95.4986L93.0826 53.9024L95.9818 56.5854ZM106.129 56.5854V51.7073C106.129 51.2195 106.129 50.7317 106.129 50.2439C106.129 50.4878 105.887 50.7317 105.887 50.9756L103.471 56.5854H103.23L100.572 50.9756C100.572 50.7317 100.331 50.4878 100.331 50.2439C100.331 50.4878 100.331 50.9756 100.331 51.7073V56.5854H99.6058V49.2683H100.572L102.988 54.3902C103.23 54.878 103.23 55.122 103.23 55.3659C103.23 55.122 103.471 54.878 103.471 54.3902L105.887 49.2683H106.854V56.5854H106.129ZM108.787 51.7073C109.27 51.4634 109.995 51.2195 110.478 51.2195C111.686 51.2195 112.411 51.9512 112.411 53.1707V56.5854H111.686V55.8537C111.444 56.5854 110.719 56.8293 109.995 56.8293C109.511 56.8293 109.028 56.5854 108.787 56.3415C108.545 56.0976 108.303 55.6098 108.303 55.1219C108.303 54.1463 108.787 53.6585 109.995 53.4146L111.686 53.1707C111.686 52.1951 111.203 51.7073 110.478 51.7073C109.753 51.7073 109.27 51.9512 108.787 52.439V51.7073ZM110.478 54.1463C109.995 54.1463 109.753 54.3902 109.511 54.3902C109.27 54.6341 109.27 54.878 109.27 55.1219C109.27 55.3659 109.27 55.6098 109.511 55.8537C109.753 56.0976 109.995 56.0976 110.236 56.0976C110.719 56.0976 110.961 55.8537 111.203 55.6098C111.444 55.3659 111.686 54.878 111.686 54.3902V53.9024L110.478 54.1463ZM118.451 56.5854H117.726V53.4146C117.726 52.1951 117.243 51.7073 116.518 51.7073C116.035 51.7073 115.793 51.9512 115.551 52.1951C115.31 52.439 115.068 52.9268 115.068 53.4146V56.5854H114.343V48.7805H115.068V52.1951C115.551 51.4634 116.035 51.2195 116.759 51.2195C117.967 51.2195 118.451 51.9512 118.451 53.4146V56.5854ZM119.9 49.5122C119.9 49.2683 119.9 49.2683 120.142 49.0244C120.142 49.0244 120.383 48.7805 120.625 48.7805C120.867 48.7805 120.867 48.7805 121.108 49.0244C121.108 49.0244 121.35 49.2683 121.35 49.5122C121.35 49.7561 121.35 49.7561 121.108 50C121.108 50 120.867 50.2439 120.625 50.2439C120.383 50.2439 120.383 50.2439 120.142 50C119.9 49.7561 119.9 49.5122 119.9 49.5122ZM120.142 56.5854V51.2195H120.867V56.5854H120.142ZM126.907 56.5854H126.182V53.6585C126.182 52.439 125.699 51.9512 124.974 51.9512C124.491 51.9512 124.249 52.1951 124.007 52.439C123.766 52.6829 123.524 53.1707 123.524 53.6585V56.5854H122.799V51.2195H123.524V52.1951C124.007 51.4634 124.491 51.2195 125.215 51.2195C125.699 51.2195 126.182 51.4634 126.423 51.7073C126.665 52.1951 126.907 52.6829 126.907 53.4146V56.5854ZM132.947 56.5854H132.222V55.6098C131.739 56.3415 131.255 56.5854 130.289 56.5854C129.564 56.5854 129.081 56.3415 128.598 55.8537C128.115 55.3659 128.115 54.6341 128.115 53.9024C128.115 52.9268 128.356 52.439 128.839 51.7073C129.323 51.2195 129.806 50.9756 130.531 50.9756C131.255 50.9756 131.739 51.2195 132.222 51.9512V48.7805H132.947V56.5854ZM132.222 53.4146C132.222 52.9268 131.98 52.6829 131.739 52.1951C131.497 51.9512 131.014 51.7073 130.772 51.7073C130.289 51.7073 129.806 51.9512 129.564 52.1951C129.323 52.6829 129.081 53.1707 129.081 53.9024C129.081 54.3902 129.323 54.878 129.564 55.3659C129.806 55.6098 130.289 55.8537 130.772 55.8537C131.255 55.8537 131.739 55.6098 131.98 55.3659C132.222 55.122 132.463 54.6341 132.463 54.1463V53.4146H132.222ZM137.295 52.1951C137.054 52.1951 137.054 51.9512 136.571 51.9512C136.087 51.9512 135.846 52.1951 135.604 52.439C135.363 52.6829 135.363 53.1707 135.363 53.9024V56.5854H134.638V51.2195H135.363V52.439C135.363 51.9512 135.604 51.7073 135.846 51.4634C136.087 51.2195 136.329 51.2195 136.571 51.2195C136.812 51.2195 137.054 51.2195 137.054 51.2195V52.1951H137.295ZM138.262 51.7073C138.745 51.4634 139.47 51.2195 139.953 51.2195C141.161 51.2195 141.886 51.9512 141.886 53.1707V56.5854H141.161V55.8537C140.678 56.5854 140.195 56.8293 139.47 56.8293C138.987 56.8293 138.503 56.5854 138.262 56.3415C138.02 56.0976 137.779 55.6098 137.779 55.1219C137.779 54.1463 138.262 53.6585 139.47 53.4146L141.161 53.1707C141.161 52.1951 140.678 51.7073 139.953 51.7073C139.228 51.7073 138.745 51.9512 138.262 52.439V51.7073ZM139.953 54.1463C139.47 54.1463 139.228 54.3902 138.987 54.3902C138.745 54.6341 138.745 54.878 138.745 55.1219C138.745 55.3659 138.745 55.6098 138.987 55.8537C139.228 56.0976 139.47 56.0976 139.711 56.0976C140.195 56.0976 140.436 55.8537 140.678 55.6098C140.919 55.3659 141.161 54.878 141.161 54.3902V53.9024L139.953 54.1463ZM145.993 56.5854V49.2683H148.167C148.892 49.2683 149.375 49.5122 149.617 49.7561C150.1 50 150.1 50.4878 150.1 50.9756C150.1 51.4634 150.1 51.7073 149.859 51.9512C149.617 52.1951 149.375 52.439 148.892 52.6829C149.375 52.6829 149.859 52.9268 150.1 53.1707C150.342 53.4146 150.583 53.9024 150.583 54.3902C150.583 55.122 150.342 55.6098 149.859 55.8537C149.375 56.3415 148.892 56.5854 148.167 56.5854H145.993ZM146.959 50V52.439H147.926C148.409 52.439 148.892 52.439 149.134 52.1951C149.375 51.9512 149.617 51.7073 149.617 51.2195C149.617 50.4878 149.134 50 148.167 50H146.959ZM146.959 53.1707V55.8537H148.167C148.651 55.8537 149.134 55.6098 149.375 55.3659C149.617 55.122 149.859 54.878 149.859 54.3902C149.859 53.4146 149.134 53.1707 147.926 53.1707H146.959ZM152.033 51.7073C152.516 51.4634 153.241 51.2195 153.724 51.2195C154.932 51.2195 155.657 51.9512 155.657 53.1707V56.5854H154.932V55.8537C154.449 56.5854 153.966 56.8293 153.241 56.8293C152.758 56.8293 152.275 56.5854 152.033 56.3415C151.791 56.0976 151.55 55.6098 151.55 55.1219C151.55 54.1463 152.033 53.6585 153.241 53.4146L154.932 53.1707C154.932 52.1951 154.449 51.7073 153.724 51.7073C152.999 51.7073 152.516 51.9512 152.033 52.439V51.7073ZM153.724 54.1463C153.241 54.1463 152.999 54.3902 152.758 54.3902C152.516 54.6341 152.516 54.878 152.516 55.1219C152.516 55.3659 152.516 55.6098 152.758 55.8537C152.999 56.0976 153.241 56.0976 153.483 56.0976C153.966 56.0976 154.207 55.8537 154.449 55.6098C154.691 55.3659 154.932 54.878 154.932 54.3902V53.9024L153.724 54.1463ZM161.697 56.5854H160.972V53.6585C160.972 52.439 160.489 51.9512 159.764 51.9512C159.281 51.9512 159.039 52.1951 158.798 52.439C158.556 52.6829 158.315 53.1707 158.315 53.6585V56.5854H157.59V51.2195H158.315V52.1951C158.798 51.4634 159.281 51.2195 160.006 51.2195C160.489 51.2195 160.972 51.4634 161.214 51.7073C161.455 52.1951 161.697 52.6829 161.697 53.4146V56.5854ZM167.495 56.5854H166.287L163.871 54.1463V56.5854H163.147V48.7805H163.871V53.6585L166.046 51.2195H167.012L164.596 53.9024L167.495 56.5854Z" fill="#003974"/>
</g>
<defs>
<clipPath id="clip0_59_478">
<rect width="151" height="40" fill="white" transform="translate(16.4954 20)"/>
</clipPath>
</defs>
</svg>
