<svg width="30" height="31" viewBox="0 0 30 31" fill="none" xmlns="http://www.w3.org/2000/svg">
<g clip-path="url(#clip0_3_6075)">
<path d="M14.1855 6.67009H16.5236C17.6536 6.67009 18.57 5.76463 18.57 4.64736V3.78918C18.57 2.19827 17.2655 0.90918 15.6555 0.90918H15.0536C13.4436 0.90918 12.1382 2.19827 12.1382 3.78918V4.64736C12.1382 5.76463 13.0545 6.67009 14.1855 6.67009Z" fill="#142254"/>
<path d="M9.38456 19.0546L9.92092 16.9783C10.1709 16.0128 9.43274 15.0737 8.42456 15.0737C7.70456 15.0737 7.0791 15.5646 6.9182 16.2583L4.97274 24.6183C4.75092 25.5774 5.4882 26.4919 6.48365 26.4919H6.66183C7.01538 26.4935 7.35877 26.3737 7.63472 26.1527C7.91067 25.9317 8.1025 25.6227 8.1782 25.2774L8.89274 21.9346H12.6355C13.0627 21.9346 13.41 22.2774 13.41 22.7001V24.7237C13.41 25.5692 14.1046 26.2546 14.96 26.2546H15.7491C16.6046 26.2546 17.2982 25.5692 17.2982 24.7237V22.7001C17.2982 22.2774 17.6455 21.9346 18.0737 21.9346H20.6946L21.6173 25.3874C21.7991 26.0692 22.4282 26.5401 23.1409 26.5283L23.3082 26.5255C24.3173 26.5083 25.0409 25.5592 24.7791 24.5974L23.58 20.1883C23.4898 19.8611 23.2944 19.5727 23.0239 19.3677C22.7535 19.1626 22.423 19.0523 22.0836 19.0537H17.2982L16.5237 20.0474C15.8782 20.6837 14.8318 20.6837 14.1855 20.0474L13.41 19.0537L9.38456 19.0546Z" fill="#142254"/>
<path d="M14.1857 6.67009H16.5239M14.1857 6.67009V11.8546M14.1857 6.67009C13.0548 6.67009 12.1393 5.76463 12.1393 4.64736V3.78918C12.1393 2.19827 13.4439 0.90918 15.0539 0.90918H15.6557C17.2648 0.90918 18.5702 2.19827 18.5702 3.78918V4.64736C18.5702 5.76463 17.653 6.67009 16.5239 6.67009M16.5239 6.67009V11.8546M14.1857 11.8546H6.65386C5.96848 11.8517 5.30158 12.0767 4.75802 12.4942C4.21447 12.9117 3.8251 13.4981 3.65114 14.161L0.552044 26.1819C0.0529532 28.1183 1.53386 30.0001 3.55477 30.0001H26.4448C28.5048 30.0001 29.9911 28.051 29.4239 26.0946L25.9375 14.0728C25.5566 12.7592 24.3411 11.8546 22.9584 11.8546H16.5239M14.1857 11.8546V14.9174M14.1857 20.0483L13.4102 19.0546M14.1857 20.0483C14.8311 20.6846 15.8775 20.6846 16.5239 20.0483M14.1857 20.0483V14.9174M13.4102 19.0546H9.38477L9.92114 16.9783C10.1711 16.0128 9.43295 15.0737 8.42477 15.0737C7.70477 15.0737 7.07932 15.5646 6.91841 16.2583L4.97295 24.6183C4.75114 25.5774 5.48841 26.4919 6.48386 26.4919H6.66204C7.01559 26.4935 7.35899 26.3737 7.63494 26.1527C7.91089 25.9317 8.10271 25.6227 8.17841 25.2774L8.89295 21.9346H12.6357C13.063 21.9346 13.4102 22.2774 13.4102 22.7001V24.7237C13.4102 25.5692 14.1048 26.2546 14.9602 26.2546H15.7493C16.6048 26.2546 17.2984 25.5692 17.2984 24.7237V22.7001C17.2984 22.2774 17.6457 21.9346 18.0739 21.9346H20.6948L21.6175 25.3874C21.7993 26.0692 22.4284 26.5401 23.1411 26.5283L23.3084 26.5255C24.3175 26.5083 25.0411 25.5592 24.7793 24.5974L23.5802 20.1883C23.49 19.8611 23.2946 19.5727 23.0241 19.3677C22.7537 19.1626 22.4233 19.0523 22.0839 19.0537L17.2984 19.0546M13.4102 19.0546V15.4546C13.642 15.2265 13.9048 15.0465 14.1857 14.9174M16.5239 20.0483L17.2984 19.0546M16.5239 20.0483V14.9174M17.2984 19.0546V15.4546C17.0733 15.2323 16.8112 15.0499 16.5239 14.9174M16.5239 14.9174V11.8546" stroke="#142254"/>
</g>
<defs>
<clipPath id="clip0_3_6075">
<rect width="30" height="30.9091" fill="white"/>
</clipPath>
</defs>
</svg>
