<svg width="37" height="51" viewBox="0 0 37 51" fill="none" xmlns="http://www.w3.org/2000/svg">
<path d="M21.6193 14.7768L21.3347 14.6079H14.8597L14.575 14.7768C7.21957 19.1484 0 31.8829 0 40.4887C0 49.441 6.31743 50.1823 13.3569 50.1823C14.1545 50.1823 14.9762 50.1735 15.8173 50.1646C17.5645 50.1461 19.4331 50.1461 21.1819 50.1646C22.0238 50.1743 22.8439 50.1823 23.6423 50.1823C27.5556 50.1823 30.6311 49.9315 32.9267 48.7069C35.6685 47.2435 37 44.5556 37 40.4887C36.9984 32.2801 29.2361 19.3036 21.6193 14.7768ZM31.7881 46.5786C29.9348 47.5667 27.1898 47.7694 23.6391 47.7694C22.8519 47.7694 22.039 47.7605 21.2076 47.7517C20.324 47.7412 19.4194 47.7324 18.498 47.7324C17.5765 47.7324 16.672 47.7428 15.7883 47.7517C14.957 47.7613 14.1441 47.7694 13.3569 47.7694C5.78675 47.7694 2.41135 46.7177 2.41135 40.4879C2.41135 32.9764 9.10346 21.062 15.5286 17.0193H20.6641C27.4816 21.2751 34.5854 33.2 34.5854 40.4879C34.5862 44.5628 33.0899 45.8831 31.7881 46.5786Z" fill="white"/>
<path d="M14.5926 13.1567L14.8595 13.3006H21.3346L21.6015 13.1567C23.2522 12.2698 24.406 10.4639 24.7108 9.95334L32.4642 1.0919L29.1636 1.62338C28.6378 1.7078 27.1535 1.92168 26.3229 1.94098C26.1749 1.8654 25.8927 1.67323 25.6772 1.5285C24.7807 0.919833 23.4243 0 21.7671 0C20.3697 0 19.3654 0.562834 18.5574 1.01551C17.9664 1.34678 17.5 1.6081 17.0007 1.6081C16.491 1.6081 15.9217 1.33794 15.2624 1.02436C14.3015 0.56766 13.1043 0 11.5235 0C8.61207 0 6.82868 1.92007 6.75471 2.00209L6.08252 2.7394L11.4608 9.91153C11.7189 10.357 12.892 12.2433 14.5926 13.1567ZM11.5211 2.41135C12.5591 2.41135 13.3688 2.79568 14.2251 3.20253C15.0718 3.60456 15.9466 4.01945 16.9983 4.01945C18.1272 4.01945 18.9819 3.54104 19.7345 3.11891C20.4115 2.7394 20.9961 2.41135 21.7639 2.41135C22.6813 2.41135 23.5899 3.02805 24.3216 3.52335C24.9769 3.96879 25.5446 4.35393 26.2039 4.35393C26.2682 4.35393 26.3358 4.35313 26.4049 4.35072L22.8172 8.45138L22.6733 8.654C22.4281 9.08979 21.6305 10.2701 20.6978 10.8868H15.4931C14.5685 10.2734 13.766 9.0906 13.5176 8.6548L9.3132 3.03047C9.83181 2.72332 10.5844 2.41135 11.5211 2.41135Z" fill="white"/>
<path d="M13.6821 26.7386H15.5668C17.8769 26.7386 19.284 27.5089 19.6554 29.0486H13.6821V30.3761H19.7358C19.5509 32.2078 18.0103 33.4034 15.1431 33.4034H13.6821V35.0493C16.1779 37.7043 18.1157 40.0143 20.1877 42.5101H22.7365C20.5053 39.7755 18.2483 37.0666 16.1779 34.9166C19.5758 34.8105 21.7275 33.085 21.992 30.3769H24.8592V29.0494H21.9647C21.8063 27.8273 21.2482 26.9525 20.478 26.3414H24.8584V25.0139H13.6821V26.7386Z" fill="white"/>
</svg>
