<svg width="120" height="120" viewBox="0 0 120 120" fill="none" xmlns="http://www.w3.org/2000/svg">
<circle cx="60" cy="60" r="60" fill="#142254"/>
<path d="M60 25C40.7003 25 25 40.7003 25 60C25 79.2997 40.7003 95 60 95C79.2997 95 95 79.2997 95 60C95 40.7003 79.2997 25 60 25ZM60 92.6202C42.013 92.6202 27.3798 77.9854 27.3798 60C27.3798 42.0146 42.013 27.3798 60 27.3798C77.987 27.3798 92.6202 42.013 92.6202 60C92.6202 77.987 77.987 92.6202 60 92.6202Z" fill="white"/>
<path d="M72.1093 73.9094H47.8912C47.2333 73.9094 46.7021 74.4422 46.7021 75.0985V82.9856C46.7021 83.6435 47.2349 84.1747 47.8912 84.1747H72.1077C72.7656 84.1747 73.2968 83.6419 73.2968 82.9856V75.1001C73.2984 74.4422 72.7656 73.9094 72.1093 73.9094ZM70.9186 81.7981H49.0819V76.2908H70.9186V81.7981Z" fill="white"/>
<path d="M84.377 73.9833C86.8017 69.771 88.1207 64.9922 88.1207 60C88.1207 55.0094 86.8033 50.2306 84.3786 46.0183C84.3658 45.9926 84.3658 45.9653 84.3513 45.9396C84.3337 45.9107 84.3048 45.8931 84.2871 45.8658C83.0788 43.7974 81.6233 41.8541 79.8838 40.1146C78.146 38.3767 76.2059 36.9228 74.139 35.7145C74.1101 35.6937 74.0925 35.6632 74.0604 35.6455C74.0347 35.6311 74.0042 35.6311 73.9786 35.6182C69.7678 33.1951 64.9891 31.8777 60.0001 31.8777C55.0111 31.8777 50.2355 33.1935 46.0232 35.6166C45.9959 35.6295 45.967 35.6295 45.9397 35.6439C45.9076 35.6616 45.89 35.692 45.8611 35.7129C43.7943 36.9212 41.8542 38.3751 40.1163 40.113C38.3768 41.8525 36.9213 43.7942 35.713 45.8642C35.6938 45.8915 35.6649 45.9075 35.6488 45.938C35.6344 45.9637 35.6344 45.991 35.6215 46.0167C33.1968 50.2306 31.8794 55.0094 31.8794 60C31.8794 64.9922 33.1968 69.771 35.6231 73.9833C35.636 74.009 35.6344 74.0362 35.6488 74.0603C35.6617 74.0812 35.6857 74.0892 35.6986 74.11C36.9101 76.1881 38.3704 78.1378 40.1163 79.8837C40.5817 80.3491 41.3343 80.3491 41.798 79.8837C42.2634 79.4184 42.2634 78.6658 41.798 78.202C40.4725 76.8765 39.3252 75.4227 38.3335 73.8822L41.3118 72.1619C41.8815 71.833 42.0756 71.1061 41.7467 70.5364C41.4193 69.9635 40.6924 69.7726 40.1227 70.1015L37.1364 71.825C35.4418 68.5578 34.487 64.9472 34.3153 61.189H37.7333C38.3912 61.189 38.9224 60.6563 38.9224 60C38.9224 59.3436 38.3896 58.8109 37.7333 58.8109H34.3153C34.4854 55.0527 35.4418 51.4421 37.1364 48.175L40.1227 49.9C40.3105 50.0075 40.5159 50.0589 40.7181 50.0589C41.1272 50.0589 41.5284 49.8471 41.7467 49.4635C42.0772 48.8939 41.8815 48.1669 41.3118 47.838L38.3335 46.1177C39.3252 44.5772 40.4725 43.125 41.798 41.7979C43.1235 40.4724 44.5773 39.3251 46.1179 38.335L47.8381 41.3133C48.0563 41.6952 48.4591 41.9086 48.8667 41.9086C49.0689 41.9086 49.2727 41.8573 49.462 41.7498C50.0317 41.4208 50.2259 40.6939 49.8969 40.1242L48.1735 37.1395C51.4406 35.4449 55.0528 34.4885 58.811 34.3184V37.738C58.811 38.396 59.3437 38.9271 60.0001 38.9271C60.6564 38.9271 61.1891 38.3944 61.1891 37.738V34.3168C64.9473 34.4869 68.5595 35.4433 71.8267 37.1379L70.1032 40.1226C69.7727 40.6923 69.9684 41.4192 70.5381 41.7482C70.7258 41.8557 70.9312 41.907 71.1334 41.907C71.5426 41.907 71.9438 41.6952 72.162 41.3117L73.8823 38.3334C75.4228 39.3235 76.875 40.4708 78.2021 41.7963C79.5276 43.1218 80.675 44.5756 81.6667 46.1161L78.6883 47.8364C78.1187 48.1653 77.9245 48.8923 78.2535 49.4619C78.4749 49.8438 78.8745 50.0573 79.2821 50.0573C79.4843 50.0573 79.6881 50.0059 79.8774 49.8984L82.8638 48.1734C84.5583 51.4405 85.5131 55.0527 85.6848 58.8093H82.2668C81.6089 58.8093 81.0777 59.342 81.0777 59.9984C81.0777 60.6547 81.6105 61.1874 82.2668 61.1874H85.6848C85.5147 64.9456 84.5583 68.5562 82.8638 71.8234L79.8774 70.0999C79.3078 69.7758 78.5792 69.9667 78.2535 70.5348C77.9229 71.1045 78.1187 71.8314 78.6883 72.1603L81.6667 73.8806C80.675 75.4211 79.5276 76.8733 78.2021 78.2004C77.7368 78.6658 77.7368 79.4184 78.2021 79.8821C78.4348 80.1148 78.7381 80.2304 79.043 80.2304C79.3479 80.2304 79.6512 80.1148 79.8838 79.8821C81.6297 78.1362 83.0916 76.1865 84.3016 74.1068C84.3144 74.086 84.3385 74.0796 84.3513 74.0571C84.3658 74.0362 84.3658 74.009 84.377 73.9833Z" fill="white"/>
<path d="M68.9529 45.6635C68.3945 45.3201 67.6611 45.4918 67.3145 46.0534L61.4381 55.5837C60.9727 55.4312 60.4913 55.3366 59.9987 55.3366C57.4264 55.3366 55.3354 57.4291 55.3354 59.9998C55.3354 61.2386 55.8297 62.4117 56.6722 63.2718L55.512 65.1589C55.1686 65.7189 55.3419 66.4523 55.9019 66.7957C56.0945 66.916 56.3111 66.9722 56.5245 66.9722C56.9225 66.9722 57.3124 66.7716 57.5371 66.4057L58.7198 64.4817C59.1306 64.5973 59.5558 64.663 59.9971 64.663C62.5694 64.663 64.6603 62.5705 64.6603 59.9998C64.6603 58.8171 64.2174 57.7051 63.444 56.8594L69.338 47.3003C69.6846 46.7418 69.5113 46.0085 68.9529 45.6635ZM60.0003 62.2833C59.5815 62.2833 59.1947 62.179 58.8433 61.972C58.8417 61.9704 58.8385 61.9704 58.8369 61.9688C58.1469 61.566 57.7168 60.8118 57.7168 59.9982C57.7168 58.7385 58.7422 57.7147 60.0003 57.7147C60.4464 57.7147 60.8684 57.8415 61.252 58.0918C61.2536 58.0918 61.2536 58.0934 61.2552 58.0934C61.9019 58.5123 62.2838 59.2231 62.2838 59.9982C62.2838 61.2595 61.26 62.2833 60.0003 62.2833Z" fill="white"/>
</svg>
