<svg width="30" height="33" viewBox="0 0 30 33" fill="none" xmlns="http://www.w3.org/2000/svg">
<path d="M24.0505 22.8606C24.0144 22.7163 24.0144 22.5 24.0144 22.2476L23.6899 16.0096C23.6899 14.9279 23.2933 13.9904 22.5721 13.3413C21.7067 12.5481 20.5529 12.2957 19.7236 12.2236V1.94712C19.7236 0.865384 18.8582 0 17.7764 0H4.79567C3.71394 0 2.84856 0.865384 2.84856 1.94712V30.4327H0.973558C0.432693 30.4327 0 30.8654 0 31.4062C0 31.9471 0.432693 32.3798 0.973558 32.3798H4.79567H17.7764H21.5986C22.1394 32.3798 22.5721 31.9471 22.5721 31.4062C22.5721 30.8654 22.1394 30.4327 21.5986 30.4327H19.7236V14.1346C20.2644 14.2067 20.8774 14.387 21.274 14.7476C21.5986 15.0361 21.7428 15.4327 21.7428 16.0096V16.0457L22.0673 22.7163C22.1034 22.9688 22.1394 23.2933 22.1394 23.3654C22.4639 25.2043 24.0865 26.6106 26.0337 26.6106C28.2332 26.6106 30 24.8438 30 22.6442C30 22.6082 30 22.6082 30 22.5721L29.1346 10.601C29.0625 9.73558 28.8462 7.96875 29.3149 7.57212C30.0721 6.92308 28.738 4.54327 28.738 4.54327C27.3317 1.47837 24.0865 0.216346 24.0865 0.216346L23.9423 0.180288C23.8702 0.144231 23.8341 0.144231 23.762 0.144231C23.726 0.144231 23.726 0.144231 23.726 0.144231C23.6899 0.144231 23.6538 0.144231 23.6178 0.180288C23.5817 0.180288 23.5817 0.216346 23.5457 0.216346C23.4736 0.252404 23.4014 0.360577 23.4014 0.504808C23.4014 0.793269 23.6178 0.865385 23.6178 0.865385C24.4111 1.29808 25.0962 2.09135 25.5288 2.70433C25.7091 2.95673 25.8534 3.20913 25.9976 3.42548C25.9976 3.46154 26.0337 3.46154 26.0337 3.46154C26.0697 3.53365 26.1058 3.60577 26.1418 3.67788C26.1418 3.71394 26.1779 3.75 26.1779 3.78606C26.3942 4.25481 26.5024 4.54327 26.5024 4.54327C27.1875 6.38221 27.3317 8.25721 27.3317 8.25721V8.36539L28.0889 22.6803C28.0889 23.762 27.1875 24.6635 26.0697 24.6635C25.0962 24.6635 24.3029 23.9784 24.0865 23.0769M4.79567 1.94712H17.7764V12.1514H4.79567V1.94712ZM4.79567 30.4327V14.0986H17.7764V30.4327H4.79567Z" fill="#142254"/>
<path d="M9.12784 26.0455V18.5455H10.1648V19.4297H10.2536C10.3151 19.3161 10.4039 19.1847 10.5199 19.0355C10.6359 18.8864 10.7969 18.7562 11.0028 18.6449C11.2088 18.5312 11.4811 18.4744 11.8196 18.4744C12.2599 18.4744 12.6529 18.5857 12.9986 18.8082C13.3442 19.0308 13.6153 19.3516 13.8118 19.7706C14.0107 20.1896 14.1101 20.6939 14.1101 21.2834C14.1101 21.8729 14.0118 22.3783 13.8153 22.7997C13.6188 23.2187 13.349 23.5419 13.0057 23.7692C12.6624 23.9941 12.2706 24.1065 11.8303 24.1065C11.4988 24.1065 11.2277 24.0509 11.017 23.9396C10.8087 23.8284 10.6454 23.6982 10.527 23.549C10.4086 23.3999 10.3175 23.2673 10.2536 23.1513H10.1896V26.0455H9.12784ZM10.1683 21.2727C10.1683 21.6562 10.224 21.9924 10.3352 22.2812C10.4465 22.5701 10.6075 22.7962 10.8182 22.9595C11.0289 23.1205 11.2869 23.201 11.5923 23.201C11.9096 23.201 12.1747 23.117 12.3878 22.9489C12.6009 22.7784 12.7618 22.5476 12.8707 22.2564C12.982 21.9652 13.0376 21.6373 13.0376 21.2727C13.0376 20.9129 12.9832 20.5897 12.8743 20.3033C12.7678 20.0168 12.6068 19.7907 12.3913 19.625C12.1783 19.4593 11.9119 19.3764 11.5923 19.3764C11.2846 19.3764 11.0241 19.4557 10.8111 19.6143C10.6004 19.773 10.4406 19.9943 10.3317 20.2784C10.2228 20.5625 10.1683 20.8939 10.1683 21.2727Z" fill="#142254"/>
</svg>
