<svg width="120" height="120" viewBox="0 0 120 120" fill="none" xmlns="http://www.w3.org/2000/svg">
<circle cx="60" cy="60" r="60" fill="#142254"/>
<g clip-path="url(#clip0_3_4111)">
<path d="M60 25C40.701 25 25 40.701 25 60C25 79.299 40.701 95 60 95C79.299 95 95 79.299 95 60C95 40.701 79.299 25 60 25ZM60 92.0833C42.3091 92.0833 27.9167 77.6909 27.9167 60C27.9167 42.3091 42.3091 27.9167 60 27.9167C77.6909 27.9167 92.0833 42.3091 92.0833 60C92.0833 77.6909 77.6909 92.0833 60 92.0833Z" fill="white"/>
<path d="M84.7915 53.4374H80.8455C80.4601 52.2066 79.9705 51.0224 79.3828 49.8979L82.1767 47.104C82.7274 46.5535 83.0304 45.8222 83.0304 45.0447C83.0304 44.2671 82.7271 43.5358 82.1767 42.9854L77.0144 37.8231C76.4638 37.2725 75.7325 36.9694 74.9549 36.9694C74.1775 36.9694 73.4461 37.2725 72.8956 37.8231L70.1017 40.6169C68.9772 40.0292 67.7929 39.5398 66.5622 39.1542V35.2084C66.5622 33.6002 65.2538 32.2917 63.6455 32.2917H56.3539C54.7456 32.2917 53.4372 33.6002 53.4372 35.2084V39.1544C52.2064 39.5398 51.0222 40.0294 49.8977 40.6171L47.1038 37.8232C46.5533 37.2725 45.8219 36.9695 45.0445 36.9695C44.2669 36.9695 43.5355 37.2728 42.9852 37.8232L37.8228 42.9856C37.2723 43.5361 36.9691 44.2674 36.9691 45.045C36.9691 45.8225 37.2723 46.5538 37.8228 47.1043L40.6167 49.8982C40.029 51.0227 39.5396 52.207 39.154 53.4377H35.2082C33.5999 53.4377 32.2915 54.7461 32.2915 56.3544V63.6461C32.2915 65.2543 33.5999 66.5627 35.2082 66.5627H39.154C39.5394 67.7936 40.029 68.9777 40.6167 70.1022L37.8228 72.8961C37.2721 73.4466 36.9691 74.178 36.9691 74.9554C36.9691 75.733 37.2724 76.4644 37.8228 77.0147L42.9852 82.1771C43.5357 82.7276 44.267 83.0308 45.0446 83.0308C45.8221 83.0308 46.5534 82.7276 47.1039 82.1771L49.8978 79.3832C51.0223 79.9709 52.2066 80.4604 53.4373 80.8459V84.7917C53.4373 86.4 54.7458 87.7084 56.354 87.7084H63.6457C65.2539 87.7084 66.5623 86.4 66.5625 84.7917V80.8458C67.7933 80.4604 68.9775 79.9708 70.102 79.3831L72.8959 82.177C73.4464 82.7276 74.1778 83.0307 74.9552 83.0307C75.7328 83.0307 76.4641 82.7273 77.0145 82.177L82.1769 77.0146C82.7274 76.4641 83.0306 75.7327 83.0306 74.9551C83.0306 74.1777 82.7274 73.4464 82.1769 72.8958L79.383 70.102C79.9707 68.9774 80.4601 67.7931 80.8457 66.5624H84.7915C86.3998 66.5624 87.7082 65.254 87.7082 63.6458V56.3541C87.7082 54.7458 86.3998 53.4374 84.7915 53.4374ZM84.7915 63.6456H79.746C79.0807 63.6456 78.5 64.0957 78.3337 64.7398C77.8861 66.4754 77.2085 68.1134 76.3193 69.6087C75.9785 70.182 76.0699 70.9137 76.5416 71.3853L80.1145 74.9519L74.9583 80.1144L71.3853 76.5415C70.9134 76.0697 70.1818 75.9786 69.6088 76.3193C68.1134 77.2084 66.4753 77.8862 64.7399 78.3337C64.0957 78.4999 63.6457 79.0806 63.6457 79.7459V84.7917H56.354V79.7461C56.354 79.0808 55.904 78.5001 55.2598 78.3338C53.5243 77.8862 51.8863 77.2086 50.3909 76.3194C50.1594 76.1817 49.9019 76.1147 49.6461 76.1147C49.269 76.1147 48.8955 76.2608 48.6146 76.5421L45.048 80.115L39.8855 74.9588L43.4584 71.3859C43.93 70.9141 44.0215 70.1826 43.6806 69.6093C42.7915 68.114 42.1137 66.4758 41.6663 64.7404C41.5 64.0962 40.9193 63.6462 40.254 63.6462H35.2082V56.3545H40.2534C40.9187 56.3545 41.4994 55.9045 41.6657 55.2604C42.1132 53.5248 42.7909 51.8868 43.6801 50.3914C44.0209 49.8181 43.9294 49.0865 43.4578 48.6149L39.8849 45.0482L45.0411 39.8857L48.614 43.4586C49.086 43.9304 49.8176 44.0217 50.3906 43.6809C51.886 42.7917 53.5241 42.1139 55.2595 41.6665C55.9037 41.5002 56.3537 40.9195 56.3537 40.2542V35.2084H63.6454V40.2537C63.6454 40.919 64.0954 41.4997 64.7396 41.6659C66.4751 42.1135 68.1131 42.7912 69.6085 43.6803C70.1815 44.0211 70.9133 43.9295 71.385 43.4581L74.9517 39.8851L80.1142 45.0414L76.5413 48.6143C76.0696 49.0861 75.9782 49.8176 76.319 50.3908C77.2082 51.8862 77.886 53.5244 78.3334 55.2598C78.4997 55.9039 79.0804 56.354 79.7457 56.354H84.7915V63.6456Z" fill="white"/>
<path d="M73.356 67.6526L67.5226 62.5484L65.602 64.7434L68.5145 67.2917H59.9998C55.9792 67.2917 52.7082 64.0206 52.7082 60H49.7915C49.7915 65.6289 54.371 70.2083 59.9998 70.2083H68.5145L65.602 72.7568L67.5226 74.9517L73.356 69.8475C73.6724 69.5708 73.854 69.1706 73.854 68.7501C73.854 68.3297 73.6724 67.9294 73.356 67.6526Z" fill="white"/>
<path d="M54.398 55.2565L51.4855 52.7084H60.0002C64.0208 52.7084 67.2918 55.9794 67.2918 60H70.2085C70.2085 54.3712 65.629 49.7917 60.0002 49.7917H51.4855L54.398 47.2433L52.4773 45.0483L46.644 50.1525C46.3276 50.4293 46.146 50.8295 46.146 51.2499C46.146 51.6703 46.3276 52.0705 46.644 52.3473L52.4773 57.4515L54.398 55.2565Z" fill="white"/>
</g>
<defs>
<clipPath id="clip0_3_4111">
<rect width="70" height="70" fill="white" transform="translate(25 25)"/>
</clipPath>
</defs>
</svg>
