<svg width="14" height="14" viewBox="0 0 14 14" fill="none" xmlns="http://www.w3.org/2000/svg">
<path d="M13.7063 7.56484L6.43521 0.29373C6.20414 0.0622658 5.87457 -0.0410523 5.5518 0.0158127L1.54001 0.730229C1.12674 0.803913 0.803171 1.12748 0.729486 1.54076L0.0154703 5.55254C-0.0417952 5.87491 0.0619233 6.20449 0.293388 6.43595L7.5641 13.7067C7.75952 13.9017 8.01581 13.9994 8.27211 13.9994C8.5292 13.9994 8.78469 13.9017 8.98092 13.7067L13.7075 8.97966C14.0976 8.58921 14.0976 7.95529 13.7063 7.56484ZM3.77457 3.78652C3.37411 4.18097 2.72977 4.17617 2.33532 3.77611C1.94087 3.37565 1.94528 2.73132 2.34573 2.33646C2.74619 1.94201 3.39053 1.94682 3.78538 2.34728C4.17983 2.74693 4.17462 3.39127 3.77457 3.78652Z" fill="#142254"/>
</svg>
