<svg width="37" height="38" viewBox="0 0 37 38" fill="none" xmlns="http://www.w3.org/2000/svg">
<path fill-rule="evenodd" clip-rule="evenodd" d="M16.1513 0.187501H19.8487C23.0648 0.187466 25.6122 0.187448 27.6058 0.455496C29.6574 0.731331 31.3182 1.31254 32.6279 2.62217C33.1403 3.13475 33.1403 3.96577 32.6279 4.47833C32.1153 4.9909 31.2842 4.9909 30.7717 4.47833C30.0311 3.73771 29.0166 3.29379 27.2561 3.05708C25.4576 2.81528 23.0869 2.8125 19.75 2.8125H16.25C12.9131 2.8125 10.5424 2.81528 8.74399 3.05708C6.98333 3.29379 5.96894 3.73771 5.22833 4.47833C4.48771 5.21894 4.04379 6.23333 3.80708 7.99399C3.56528 9.79239 3.5625 12.1631 3.5625 15.5V22.5C3.5625 25.8369 3.56528 28.2076 3.80708 30.0061C4.04379 31.7666 4.48771 32.7811 5.22833 33.5217C5.96894 34.2623 6.98333 34.7062 8.74399 34.9428C10.5424 35.1847 12.9131 35.1875 16.25 35.1875H19.75C23.0869 35.1875 25.4576 35.1847 27.2561 34.9428C29.0166 34.7062 30.0311 34.2623 30.7717 33.5217C31.9895 32.3038 32.3584 30.4114 32.4224 25.9811C32.4329 25.2562 33.029 24.6772 33.7538 24.6877C34.4785 24.6982 35.0576 25.2942 35.0471 26.0189C34.9857 30.267 34.7108 33.2949 32.6279 35.3779C31.3182 36.6874 29.6574 37.2686 27.6058 37.5446C25.6122 37.8125 23.0648 37.8125 19.8487 37.8125H16.1513C12.9352 37.8125 10.3878 37.8125 8.39422 37.5446C6.34248 37.2686 4.68182 36.6874 3.37217 35.3779C2.06254 34.0682 1.48133 32.4074 1.2055 30.3557C0.937448 28.3621 0.937466 25.8148 0.937501 22.5987V15.4013C0.937466 12.1852 0.937448 9.63783 1.2055 7.64422C1.48133 5.59248 2.06254 3.93182 3.37217 2.62217C4.68182 1.31254 6.34248 0.731331 8.39422 0.455496C10.3878 0.187448 12.9352 0.187466 16.1513 0.187501ZM28.6979 10.3297C30.5543 8.47342 33.564 8.47342 35.4202 10.3297C37.2766 12.186 37.2766 15.1957 35.4202 17.0521L27.0984 25.3738C26.6457 25.8267 26.3394 26.133 25.9963 26.4006C25.5927 26.7154 25.1561 26.9852 24.6941 27.2056C24.3012 27.3926 23.8903 27.5297 23.2827 27.732L19.6364 28.9475C18.8314 29.2158 17.9438 29.0063 17.3438 28.4062C16.7437 27.8062 16.5342 26.9186 16.8025 26.1136L17.9935 22.5406C18.0017 22.5159 18.0098 22.4914 18.0178 22.4673C18.2203 21.8598 18.3573 21.4488 18.5444 21.0559C18.7647 20.5939 19.0346 20.1573 19.3494 19.7537C19.617 19.4105 19.9232 19.1043 20.3761 18.6516C20.3942 18.6335 20.4124 18.6153 20.4309 18.5968L28.6979 10.3297ZM33.5642 12.1859C32.7329 11.3547 31.3854 11.3547 30.5541 12.1859L30.236 12.504C30.2533 12.5626 30.2731 12.6249 30.2958 12.6904C30.4603 13.1649 30.7729 13.7925 31.3651 14.3848C31.9575 14.9772 32.585 15.2896 33.0596 15.4542C33.1251 15.4769 33.1874 15.4967 33.246 15.514L33.5642 15.1958C34.3952 14.3647 34.3952 13.0171 33.5642 12.1859ZM31.2412 17.5188C30.6849 17.2265 30.0843 16.8162 29.509 16.2409C28.9338 15.6657 28.5234 15.0651 28.2312 14.5087L22.287 20.453C21.7602 20.9799 21.5753 21.1679 21.4192 21.3681C21.2218 21.6213 21.0524 21.8954 20.9141 22.1853C20.8049 22.4144 20.7193 22.6638 20.4838 23.3708L19.7833 25.4724L20.2776 25.9667L22.3792 25.2662C23.0862 25.0307 23.3356 24.9451 23.5646 24.8359C23.8546 24.6976 24.1287 24.5282 24.3819 24.3308C24.5821 24.1747 24.7701 23.9898 25.297 23.463L31.2412 17.5188ZM9.6875 13.75C9.6875 13.0251 10.2751 12.4375 11 12.4375H22.375C23.0998 12.4375 23.6875 13.0251 23.6875 13.75C23.6875 14.4749 23.0998 15.0625 22.375 15.0625H11C10.2751 15.0625 9.6875 14.4749 9.6875 13.75ZM9.6875 20.75C9.6875 20.0251 10.2751 19.4375 11 19.4375H15.375C16.0998 19.4375 16.6875 20.0251 16.6875 20.75C16.6875 21.4748 16.0998 22.0625 15.375 22.0625H11C10.2751 22.0625 9.6875 21.4748 9.6875 20.75ZM9.6875 27.75C9.6875 27.0251 10.2751 26.4375 11 26.4375H13.625C14.3499 26.4375 14.9375 27.0251 14.9375 27.75C14.9375 28.4748 14.3499 29.0625 13.625 29.0625H11C10.2751 29.0625 9.6875 28.4748 9.6875 27.75Z" fill="white"/>
</svg>
