<svg width="34" height="34" viewBox="0 0 34 34" fill="none" xmlns="http://www.w3.org/2000/svg">
<circle cx="17" cy="17" r="17" fill="#53CB60"/>
<path d="M21.845 19.1105C21.5758 18.983 20.2866 18.3455 20.0458 18.2463C19.805 18.1471 19.635 18.1188 19.4508 18.388C19.2666 18.6571 18.7708 19.238 18.615 19.4221C18.4591 19.6063 18.3175 19.6205 18.0483 19.4221C17.2752 19.1119 16.5612 18.671 15.9375 18.1188C15.3728 17.5872 14.8948 16.9706 14.5208 16.2913C14.365 16.0363 14.5208 15.8946 14.6341 15.753C14.7475 15.6113 14.8891 15.4555 15.0308 15.2996C15.1344 15.1649 15.2201 15.0173 15.2858 14.8605C15.3209 14.7876 15.3392 14.7077 15.3392 14.6267C15.3392 14.5458 15.3209 14.4659 15.2858 14.393C15.2858 14.2655 14.6908 12.9763 14.4641 12.4521C14.2375 11.928 14.0391 11.9988 13.8833 11.9988H13.3166C13.0467 12.0093 12.7919 12.1265 12.6083 12.3246C12.3119 12.6075 12.0771 12.9486 11.9186 13.3264C11.7602 13.7043 11.6815 14.1108 11.6875 14.5205C11.7599 15.5263 12.1297 16.4878 12.75 17.283C13.8881 18.9737 15.4451 20.3404 17.2691 21.2496C17.8925 21.5188 18.3741 21.6746 18.7566 21.8021C19.2937 21.9645 19.8615 21.9985 20.4141 21.9013C20.7812 21.8268 21.129 21.6778 21.4361 21.4633C21.7431 21.2489 22.0028 20.9736 22.1991 20.6546C22.3625 20.2607 22.4163 19.83 22.355 19.408C22.2841 19.3088 22.1141 19.238 21.845 19.1105Z" fill="white"/>
<path d="M24.4941 9.46321C23.5144 8.47421 22.3465 7.69142 21.0594 7.161C19.7723 6.63059 18.392 6.36329 16.9999 6.37487C15.1559 6.38452 13.3466 6.87783 11.7528 7.80554C10.159 8.73324 8.83656 10.0629 7.91746 11.6616C6.99836 13.2604 6.51481 15.0723 6.5151 16.9164C6.51539 18.7605 6.99951 20.5722 7.91911 22.1707L6.50244 27.6249L12.0841 26.2082C13.6272 27.0479 15.3565 27.4863 17.1133 27.4832H16.9999C19.0937 27.4968 21.144 26.8866 22.8895 25.7303C24.635 24.574 25.9966 22.924 26.8006 20.9908C27.6046 19.0575 27.8146 16.9286 27.4038 14.8755C26.993 12.8225 25.98 10.9383 24.4941 9.46321ZM16.9999 25.6699C15.4282 25.6711 13.8857 25.2451 12.5374 24.4374L12.2258 24.2532L8.91077 25.1174L9.78911 21.8874L9.59077 21.5615C8.45936 19.7395 8.03614 17.5655 8.40141 15.452C8.76668 13.3386 9.89502 11.4328 11.5724 10.0962C13.2497 8.75952 15.3593 8.0851 17.501 8.20084C19.6426 8.31658 21.6673 9.21443 23.1908 10.724C24.0075 11.5342 24.6549 12.4989 25.0951 13.5617C25.5354 14.6246 25.7596 15.7645 25.7549 16.9149C25.7512 19.2357 24.8276 21.4604 23.1865 23.1015C21.5455 24.7425 19.3208 25.6661 16.9999 25.6699Z" fill="white"/>
</svg>
