<svg width="218" height="100" viewBox="0 0 218 100" fill="none" xmlns="http://www.w3.org/2000/svg">
<rect width="218" height="100" rx="8" fill="#F3F3F3"/>
<path d="M36.7154 26C39.5631 30.8751 42.4108 35.6955 45.153 40.5706C40.6608 48.5122 36.1685 56.5123 31.5122 64.3992C29.7035 67.411 28.0043 70.4813 26.1996 73.4931C20.4494 73.5478 14.6954 73.5478 9 73.4931C9.16407 73.1103 9.32813 72.7275 9.54689 72.3447C18.6369 56.8951 27.7308 41.5042 36.7154 26ZM161.616 37.9416C164.792 43.8597 167.972 49.7739 171.148 55.692C170.054 55.692 168.902 55.6373 167.808 55.692C167.042 54.3756 166.382 53.0083 165.671 51.6919C162.878 51.5825 160.03 51.6919 157.233 51.6372C156.577 53.0083 155.808 54.3209 155.097 55.6373H151.811C154.987 49.7192 158.218 43.805 161.616 37.9416ZM158.601 49.1723C160.519 49.1723 162.437 49.1723 164.351 49.227C163.366 47.4184 162.542 45.6098 161.503 43.8597C160.492 45.6066 159.525 47.378 158.601 49.1723ZM172.952 37.8869C177.718 42.0511 182.539 46.2152 187.25 50.4302C187.359 46.5942 187.25 42.8167 187.359 38.9807C188.398 38.9807 189.386 39.0354 190.425 39.0354C190.371 44.8988 190.425 50.813 190.425 56.6764C187.304 54.0474 184.234 51.3091 181.167 48.6254C179.413 47.1449 177.718 45.6684 176.074 44.0785C176.019 47.9692 176.074 51.8013 176.019 55.692H172.952C172.952 49.7192 172.898 43.805 172.952 37.8869ZM71.72 55.6373C75.0052 49.7192 78.2396 43.7503 81.6342 37.8869C84.8101 43.805 87.9351 49.7192 91.1657 55.6373H87.7711C87.0626 54.3208 86.3866 52.987 85.7437 51.6372C82.896 51.5825 80.1029 51.6372 77.2513 51.6372C76.5404 52.9537 75.8255 54.3209 75.0599 55.6373C73.9114 55.692 72.8137 55.692 71.72 55.6373ZM78.6224 49.1723H84.4272C83.4429 47.3637 82.6186 45.5551 81.5795 43.805C80.5405 45.6098 79.6068 47.3637 78.6224 49.1723ZM118.83 39.4768C120.475 38.6565 122.338 38.6018 124.088 38.9299C125.623 39.2581 126.827 40.3558 127.76 41.5042C126.94 41.9417 126.116 42.3245 125.295 42.766C124.201 41.0667 121.623 40.5198 120.037 41.8362C119.217 42.4378 119.272 43.9183 120.201 44.3558C122.338 45.5043 124.912 45.7816 126.776 47.3676C128.694 49.0122 128.639 52.2427 126.83 53.942C124.912 55.86 121.901 56.2975 119.381 55.5865C117.244 55.0396 115.654 53.1216 115.381 50.9849C116.42 50.7661 117.463 50.602 118.502 50.438C118.612 51.4224 118.994 52.5747 119.983 53.0669C121.463 53.8873 123.655 53.6685 124.694 52.1919C125.405 51.2075 125.186 49.6723 124.201 48.9614C122.119 47.5903 119.381 47.4809 117.463 45.7309C116.479 44.9105 116.092 43.4847 116.424 42.223C116.694 40.9534 117.736 40.0237 118.83 39.4768ZM92.154 39.094C93.3024 38.9299 94.5095 38.9846 95.6618 38.9846C96.9236 40.8479 98.1814 42.7113 99.3885 44.5707C100.705 42.7074 101.963 40.844 103.279 39.0393C104.486 38.9846 105.689 38.9846 106.896 39.0393C104.978 41.6683 103.06 44.2972 101.201 46.9809C103.119 49.938 105.256 52.731 107.174 55.7467H103.724C102.244 53.6646 100.822 51.5278 99.3963 49.4458C97.9158 51.5278 96.3845 53.6099 94.904 55.7467H91.4547C93.4821 52.7896 95.5642 49.9419 97.7009 47.0356C95.822 44.3519 93.9626 41.723 92.154 39.094ZM109.736 39.0354C110.758 38.9807 111.781 38.9807 112.803 39.0354V55.6881H109.682C109.736 50.102 109.682 44.5707 109.736 39.0354ZM139.811 38.9807C142.44 39.0901 145.288 38.5979 147.753 39.9104C150.108 41.1722 150.655 44.9496 148.464 46.6488C149.835 47.1957 151.202 48.2387 151.53 49.7153C152.132 51.5786 151.093 53.606 149.448 54.5904C146.491 56.235 143.038 55.4654 139.807 55.6842C139.756 50.1567 139.811 44.5707 139.811 38.9807ZM142.882 41.3948V46.1606C144.03 46.1059 145.292 46.1605 146.276 45.4496C147.261 44.5746 147.26 42.7113 146.112 41.9417C145.182 41.3362 143.975 41.3948 142.882 41.3948ZM142.882 48.3481V53.2232C144.417 53.1685 146.057 53.4419 147.483 52.6763C148.745 52.0747 148.964 50.0473 147.811 49.227C146.44 48.0746 144.577 48.3481 142.882 48.3481ZM194.047 38.9807H197.113V45.5551C199.633 43.3089 202.207 41.1722 204.781 38.926H209C205.988 41.3909 202.973 43.9105 199.961 46.4848C202.918 49.6059 205.934 52.5669 208.945 55.5787C207.574 55.5787 206.152 55.6881 204.781 55.524C202.371 53.1138 200.015 50.6489 197.66 48.184L197.168 48.8403C197.113 51.0864 197.168 53.3326 197.113 55.5787H193.992C193.992 50.102 193.992 44.5707 194.047 38.9807ZM36.7154 55.5826C42.4655 55.5826 48.2195 55.5279 53.9696 55.6373C57.4189 61.6101 60.9268 67.5242 64.3214 73.5517C58.5713 73.6064 52.8173 73.5517 47.0672 73.5517C43.6726 67.5242 40.11 61.6062 36.7154 55.5826Z" fill="#AE285D"/>
</svg>
