<svg width="218" height="100" viewBox="0 0 218 100" fill="none" xmlns="http://www.w3.org/2000/svg">
<rect width="218" height="100" rx="8" fill="#F3F3F3"/>
<g clip-path="url(#clip0_3_5217)">
<path d="M9 33.6548H209V66.9853H9V33.6548Z" fill="#004C8F"/>
<path d="M42.335 33.6548H209V66.9853H42.335V33.6548Z" fill="#004C8F"/>
<path d="M52.9336 58.2051V42.4345H58.122V47.7573H62.9837V42.4345H68.1797V58.2051H62.9837V52.0862H58.122V58.2051H52.9336ZM76.3903 46.3531H77.7353C78.7034 46.3531 79.4118 46.4534 79.8645 46.6547C80.1995 46.801 80.4719 47.0197 80.7108 47.3464C80.9288 47.6688 81.105 48.0756 81.2346 48.5869C81.3523 49.0939 81.415 49.6302 81.415 50.1958C81.415 51.118 81.2896 51.8891 81.0166 52.5138C80.7526 53.1379 80.3716 53.5865 79.8812 53.863C79.3909 54.1444 78.6616 54.2781 77.6976 54.2781L76.3903 54.2865V46.3531ZM78.3935 58.2051C79.6172 58.2051 80.6314 58.1048 81.4609 57.8826C82.2954 57.6688 82.9738 57.3839 83.4934 57.044C84.022 56.6957 84.4992 56.227 84.9394 55.644C85.3754 55.0408 85.7571 54.2823 86.0538 53.3525C86.3603 52.4261 86.5065 51.382 86.5065 50.2007C86.5065 48.4657 86.1757 46.9988 85.5056 45.775C84.8265 44.5763 83.9043 43.7084 82.7265 43.1979C81.5536 42.6859 80.1536 42.4345 78.5272 42.4345H71.3147V58.2051H78.3935ZM88.8837 58.2051V42.4345H101.188V46.3239H94.0046V48.8508H99.7508V52.635H94.0046V58.2051H88.8837ZM118.563 48.4657H113.665C113.572 47.6814 113.287 47.0615 112.813 46.6171C112.336 46.1811 111.737 45.9673 110.999 45.9673C110.081 45.9673 109.335 46.3239 108.761 47.0281C108.183 47.7406 107.893 48.8926 107.893 50.4772C107.893 51.5833 108.023 52.4135 108.262 52.9791C108.51 53.5614 108.857 53.9807 109.289 54.2614C109.733 54.5421 110.274 54.6724 110.94 54.6724C111.737 54.6724 112.373 54.4704 112.838 54.01C113.316 53.5781 113.593 52.9331 113.685 52.0695H118.672C118.563 53.0502 118.366 53.8714 118.081 54.5421C117.81 55.2087 117.323 55.8711 116.665 56.5369C115.99 57.2174 115.179 57.7474 114.284 58.0923C113.366 58.4565 112.306 58.6286 111.091 58.6286C109.893 58.6286 108.774 58.4565 107.764 58.1048C106.741 57.744 105.877 57.2328 105.19 56.5913C104.49 55.9254 103.945 55.1794 103.556 54.3366C102.994 53.1512 102.73 51.8473 102.73 50.3929C102.73 49.1775 102.927 48.0248 103.325 46.9695C103.723 45.9213 104.273 45.029 104.972 44.3081C105.676 43.5907 106.443 43.0544 107.298 42.6943C108.379 42.2332 109.57 42.0117 110.89 42.0117C112.038 42.0117 113.102 42.1789 114.108 42.5181C115.11 42.858 115.932 43.3525 116.572 44.0107C117.218 44.6603 117.726 45.4323 118.069 46.2814C118.32 46.8811 118.48 47.6062 118.563 48.4657ZM135.181 45.9847C135.914 45.9847 136.388 46.0181 136.622 46.085C136.911 46.1672 137.167 46.3371 137.355 46.5711C137.54 46.8059 137.637 47.0782 137.637 47.393C137.637 47.7949 137.477 48.1258 137.171 48.3772C136.844 48.6419 136.287 48.7631 135.486 48.7631H133.533V45.984L135.181 45.9847ZM136.483 58.2051C137.712 58.2051 138.575 58.1466 139.082 58.0379C139.612 57.9086 140.127 57.7259 140.621 57.4926C141.132 57.2244 141.526 56.973 141.785 56.6964C142.188 56.3231 142.485 55.8711 142.703 55.3257C142.921 54.7768 143.03 54.1569 143.03 53.4904C143.03 52.5389 142.795 51.7553 142.318 51.118C141.84 50.4772 141.199 50.0537 140.39 49.8232C141.76 48.9595 142.443 47.8451 142.443 46.4869C142.443 45.0834 141.84 44.0107 140.646 43.2815C139.723 42.7194 138.286 42.4345 136.337 42.4345H128.513V58.2051H136.483ZM135.65 51.6C136.677 51.6 137.343 51.7254 137.678 51.9901C137.988 52.2457 138.156 52.5974 138.156 53.0711C138.156 53.5489 137.988 53.9264 137.649 54.1904C137.326 54.4711 136.652 54.5881 135.65 54.5881H133.533V51.6H135.65ZM154.426 52.9039H151.127L152.753 47.166L154.426 52.9039ZM149.576 58.2051L150.175 56.135H155.339L155.943 58.2051H161.102L155.444 42.4345H150.175L144.513 58.2051H149.576ZM163.28 58.2051V42.4345H168.113L173.565 50.8791V42.4345H178.536V58.2051H173.599L168.263 49.9702V58.2051H163.28ZM181.993 58.2051V42.4345H187.018V47.6354L191.708 42.4345H197.801L192.022 48.373L198.401 58.2051H192.19L188.397 51.9225L187.018 53.2849V58.2051H181.993Z" fill="white"/>
<path d="M9 33.6548H42.3305V66.9853H9V33.6548Z" fill="#ED232A"/>
<path d="M14.833 39.4883H36.5003V61.1556H14.833V39.4883Z" fill="white"/>
<path d="M23.999 33.6548H27.3312V66.9853H23.999V33.6548Z" fill="white"/>
<path d="M9 48.6577H42.3305V51.9899H9V48.6577Z" fill="white"/>
<path d="M20.667 45.3213H30.6662V55.3212H20.667V45.3213Z" fill="#004C8F"/>
</g>
<defs>
<clipPath id="clip0_3_5217">
<rect width="200" height="34.64" fill="white" transform="translate(9 33)"/>
</clipPath>
</defs>
</svg>
